G04*
G04 #@! TF.GenerationSoftware,Altium Limited,Altium Designer,23.2.1 (34)*
G04*
G04 Layer_Color=8421504*
%FSLAX44Y44*%
%MOMM*%
G71*
G04*
G04 #@! TF.SameCoordinates,6A6E008A-4200-4647-9FD2-FB3E41D18EF4*
G04*
G04*
G04 #@! TF.FilePolarity,Positive*
G04*
G01*
G75*
%ADD14R,0.4500X1.7000*%
%ADD15R,0.5500X1.7000*%
%ADD16R,1.7000X0.4500*%
%ADD17R,1.7000X0.5500*%
%ADD18R,3.3000X1.3000*%
%ADD19R,3.3000X0.5000*%
%ADD20R,1.9050X3.8100*%
%ADD21R,1.4500X3.4500*%
%ADD22R,1.2500X1.8000*%
%ADD23R,0.6000X1.0000*%
%ADD24R,0.5000X0.5500*%
D14*
X252250Y244000D02*
D03*
X235750D02*
D03*
X91750Y190000D02*
D03*
X75250D02*
D03*
X252250Y352000D02*
D03*
X235750D02*
D03*
X198750Y406000D02*
D03*
X182250D02*
D03*
D15*
X244000Y244000D02*
D03*
X83500Y190000D02*
D03*
X244000Y352000D02*
D03*
X190500Y406000D02*
D03*
D16*
X137000Y252250D02*
D03*
Y235750D02*
D03*
X297500Y181750D02*
D03*
Y198250D02*
D03*
Y397750D02*
D03*
Y414250D02*
D03*
X83500Y414250D02*
D03*
Y397750D02*
D03*
X190500Y306250D02*
D03*
Y289750D02*
D03*
X297500Y289750D02*
D03*
Y306250D02*
D03*
X81224Y306250D02*
D03*
Y289750D02*
D03*
X190500Y198250D02*
D03*
Y181750D02*
D03*
D17*
X137000Y244000D02*
D03*
X297500Y190000D02*
D03*
Y406000D02*
D03*
X83500Y406000D02*
D03*
X190500Y298000D02*
D03*
X297500Y298000D02*
D03*
X81224Y298000D02*
D03*
X190500Y190000D02*
D03*
D18*
X137000Y352000D02*
D03*
D19*
Y338000D02*
D03*
Y366000D02*
D03*
D20*
X182880Y33020D02*
D03*
X353060D02*
D03*
X322580D02*
D03*
X266700D02*
D03*
X238760D02*
D03*
X210820D02*
D03*
X154940D02*
D03*
X127000D02*
D03*
X68580D02*
D03*
X38100D02*
D03*
D21*
X159500Y139928D02*
D03*
X221500D02*
D03*
D22*
X103450Y45500D02*
D03*
X290550D02*
D03*
D23*
X264500Y97400D02*
D03*
X249500D02*
D03*
X234500D02*
D03*
X219500D02*
D03*
X204500D02*
D03*
X189500D02*
D03*
X174500D02*
D03*
X159500D02*
D03*
X144500D02*
D03*
X129500D02*
D03*
D24*
X137000Y370750D02*
D03*
X137000Y333250D02*
D03*
M02*
