G04*
G04 #@! TF.GenerationSoftware,Altium Limited,Altium Designer,23.2.1 (34)*
G04*
G04 Layer_Physical_Order=1*
G04 Layer_Color=255*
%FSLAX44Y44*%
%MOMM*%
G71*
G04*
G04 #@! TF.SameCoordinates,6A6E008A-4200-4647-9FD2-FB3E41D18EF4*
G04*
G04*
G04 #@! TF.FilePolarity,Positive*
G04*
G01*
G75*
%ADD14R,0.4500X1.7000*%
%ADD15R,0.5500X1.7000*%
%ADD16R,1.7000X0.4500*%
%ADD17R,1.7000X0.5500*%
%ADD18R,3.3000X1.3000*%
%ADD19R,3.3000X0.5000*%
%ADD20R,1.9050X3.8100*%
%ADD21R,1.4500X3.4500*%
%ADD22R,1.2500X1.8000*%
%ADD23R,0.6000X1.0000*%
%ADD24R,0.5000X0.5500*%
%ADD35C,0.3048*%
G36*
X317500Y436779D02*
X316327Y436293D01*
X296442Y456178D01*
X295097Y457077D01*
X293512Y457392D01*
X84948D01*
X83363Y457077D01*
X82018Y456178D01*
X42481Y416641D01*
X41583Y415297D01*
X41267Y413711D01*
Y169784D01*
X41583Y168198D01*
X42481Y166854D01*
X43061Y166273D01*
X42575Y165100D01*
X12700D01*
Y431800D01*
X50800D01*
Y469900D01*
X317500D01*
Y436779D01*
D02*
G37*
G36*
X364156Y376744D02*
Y171784D01*
X301644D01*
Y176960D01*
X308540D01*
Y186540D01*
X286460D01*
Y176960D01*
X293356D01*
Y169426D01*
X293672Y167840D01*
X294570Y166495D01*
X296355Y164710D01*
X297700Y163812D01*
X299286Y163496D01*
X317500D01*
Y114300D01*
X368300D01*
Y12700D01*
X365125D01*
Y54610D01*
X357204D01*
Y60960D01*
X356888Y62546D01*
X355990Y63890D01*
X323026Y96854D01*
X321682Y97752D01*
X320096Y98068D01*
X270040D01*
Y104940D01*
X268644D01*
Y132678D01*
X275726Y139761D01*
X276624Y141105D01*
X276940Y142691D01*
Y246426D01*
X300430Y269916D01*
X301328Y271261D01*
X301644Y272846D01*
Y284960D01*
X308540D01*
Y294540D01*
X286460D01*
Y284960D01*
X293356D01*
Y274563D01*
X269866Y251072D01*
X269002Y250987D01*
X255394Y264596D01*
Y340960D01*
X257040D01*
Y363040D01*
X247460D01*
Y353643D01*
X247422Y353586D01*
X247106Y352000D01*
Y262880D01*
X247422Y261294D01*
X248320Y259950D01*
X252056Y256213D01*
X251570Y255040D01*
X247460D01*
Y232960D01*
X257040D01*
X257476Y231871D01*
Y149036D01*
X233290Y124850D01*
X232560Y123757D01*
X231290Y123981D01*
Y159718D01*
X226601D01*
X226075Y160988D01*
X227974Y162887D01*
X228872Y164231D01*
X229188Y165817D01*
Y237913D01*
X229690Y238287D01*
X230960Y237649D01*
Y232960D01*
X240540D01*
Y255040D01*
X230960D01*
Y248144D01*
X228760D01*
X227174Y247828D01*
X225830Y246930D01*
X224773Y245873D01*
X223600Y246359D01*
Y334264D01*
X223284Y335850D01*
X222386Y337194D01*
X180849Y378731D01*
X181335Y379904D01*
X197450D01*
X228284Y349070D01*
X229629Y348172D01*
X230960Y347907D01*
Y340960D01*
X240540D01*
Y350357D01*
X240578Y350414D01*
X240894Y352000D01*
X240578Y353586D01*
X240540Y353643D01*
Y363040D01*
X230960D01*
Y359774D01*
X229787Y359288D01*
X202097Y386978D01*
X200752Y387876D01*
X199167Y388192D01*
X130301D01*
X128715Y387876D01*
X127371Y386978D01*
X113506Y373113D01*
X112608Y371769D01*
X112533Y371393D01*
X110070Y368930D01*
X109172Y367586D01*
X108856Y366000D01*
Y314000D01*
X109172Y312414D01*
X110070Y311070D01*
X132856Y288284D01*
Y257040D01*
X125960D01*
Y247460D01*
X135357D01*
X135414Y247422D01*
X137000Y247106D01*
X138586Y247422D01*
X138643Y247460D01*
X148040D01*
Y257040D01*
X141144D01*
Y290000D01*
X140828Y291586D01*
X139930Y292930D01*
X117144Y315716D01*
Y332028D01*
X117960Y332960D01*
X118414Y332960D01*
X131910D01*
Y330500D01*
X132107Y329509D01*
X132669Y328669D01*
X133509Y328107D01*
X134123Y327985D01*
X134148Y327860D01*
X135046Y326516D01*
X136832Y324730D01*
X138176Y323832D01*
X139761Y323516D01*
X173544D01*
X184847Y312213D01*
X184361Y311040D01*
X179460D01*
Y301460D01*
X201540D01*
Y311040D01*
X194644D01*
Y312420D01*
X194328Y314006D01*
X193430Y315350D01*
X178190Y330590D01*
X176846Y331488D01*
X175260Y331804D01*
X156314D01*
X156040Y332960D01*
X156040D01*
Y343040D01*
X118414D01*
X117960Y343040D01*
X117144Y343972D01*
Y360028D01*
X117960Y360960D01*
X156040D01*
Y371040D01*
X149635D01*
X149150Y372213D01*
X151252Y374316D01*
X173544D01*
X215312Y332548D01*
Y205357D01*
X214139Y204871D01*
X194644Y224366D01*
Y284960D01*
X201540D01*
Y294540D01*
X179460D01*
Y284960D01*
X186356D01*
Y222650D01*
X186672Y221064D01*
X187106Y220414D01*
X186428Y219144D01*
X141716D01*
X141144Y219716D01*
Y230960D01*
X148040D01*
Y240540D01*
X138643D01*
X138586Y240578D01*
X137000Y240894D01*
X135414Y240578D01*
X135357Y240540D01*
X125960D01*
Y230960D01*
X132856D01*
Y218416D01*
X131766Y217864D01*
X131630Y217847D01*
X85367Y264109D01*
Y284960D01*
X92264D01*
Y294540D01*
X70184D01*
Y284960D01*
X77080D01*
Y262393D01*
X77396Y260807D01*
X78294Y259463D01*
X132407Y205350D01*
X133751Y204452D01*
X135337Y204136D01*
X179041D01*
X179460Y203040D01*
X179460D01*
Y193460D01*
X201540D01*
Y196188D01*
X202713Y196674D01*
X204136Y195251D01*
Y174477D01*
X196080Y166421D01*
X195182Y165077D01*
X194866Y163491D01*
Y155974D01*
X186570Y147678D01*
X185672Y146333D01*
X185356Y144748D01*
Y104940D01*
X183960D01*
Y95720D01*
X181213Y92973D01*
X180040Y93459D01*
Y104940D01*
X178644D01*
Y155004D01*
X193430Y169790D01*
X194328Y171134D01*
X194644Y172720D01*
Y176960D01*
X201540D01*
Y186540D01*
X179460D01*
Y176960D01*
X186356D01*
Y174436D01*
X171570Y159650D01*
X170672Y158306D01*
X170560Y157744D01*
X169290Y157869D01*
Y159718D01*
X155570D01*
X122358Y192930D01*
X121014Y193828D01*
X119428Y194144D01*
X96540D01*
Y201040D01*
X86960D01*
Y178960D01*
X96540D01*
Y185856D01*
X117712D01*
X149710Y153858D01*
Y120138D01*
X169086D01*
X169290Y120138D01*
X170356Y119647D01*
Y104940D01*
X168960D01*
Y89860D01*
X170356D01*
Y87316D01*
X152010Y68970D01*
X151112Y67626D01*
X150796Y66040D01*
Y54610D01*
X142875D01*
Y12700D01*
X139065D01*
Y54610D01*
X131144D01*
Y61184D01*
X159820Y89860D01*
X165040D01*
Y104940D01*
X159820D01*
X155929Y108831D01*
X155924Y108839D01*
X140833Y123930D01*
X139488Y124828D01*
X137903Y125144D01*
X111716D01*
X67644Y169216D01*
Y181164D01*
X69287Y182807D01*
X70460Y182321D01*
Y178960D01*
X80040D01*
Y201040D01*
X70460D01*
Y193737D01*
X70213D01*
X68628Y193422D01*
X67284Y192523D01*
X60570Y185810D01*
X59672Y184466D01*
X59356Y182880D01*
Y171260D01*
X58183Y170774D01*
X55142Y173815D01*
Y344090D01*
X86430Y375378D01*
X87328Y376722D01*
X87644Y378308D01*
Y392960D01*
X94540D01*
Y402540D01*
X72460D01*
Y392960D01*
X79356D01*
Y380024D01*
X50728Y351396D01*
X49555Y351882D01*
Y411995D01*
X78183Y440623D01*
X79356Y440137D01*
Y419040D01*
X72460D01*
Y409460D01*
X77991D01*
X78049Y409422D01*
X79634Y409106D01*
X83500D01*
X85086Y409422D01*
X85143Y409460D01*
X94540D01*
Y419040D01*
X87644D01*
Y442181D01*
X88979Y443517D01*
X273623D01*
X293356Y423784D01*
Y419040D01*
X286460D01*
Y409460D01*
X308540D01*
Y419040D01*
X301644D01*
Y425500D01*
X301328Y427086D01*
X300430Y428430D01*
X280929Y447931D01*
X281415Y449105D01*
X291795D01*
X364156Y376744D01*
D02*
G37*
G36*
X368300Y385979D02*
X367127Y385493D01*
X321993Y430627D01*
X322479Y431800D01*
X368300D01*
Y385979D01*
D02*
G37*
G36*
X260356Y130634D02*
Y104940D01*
X258960D01*
Y93459D01*
X257787Y92973D01*
X255040Y95720D01*
Y104940D01*
X253644D01*
Y125581D01*
X259183Y131121D01*
X260356Y130634D01*
D02*
G37*
G36*
X231290Y120138D02*
X232076Y119194D01*
Y104940D01*
X228960D01*
Y93459D01*
X227787Y92973D01*
X225040Y95720D01*
Y104940D01*
X223644D01*
Y111681D01*
X223328Y113267D01*
X222430Y114611D01*
X218076Y118965D01*
X218562Y120138D01*
X231290D01*
D02*
G37*
G36*
X265976Y89780D02*
X318380D01*
X348916Y59244D01*
Y54610D01*
X340995D01*
Y12700D01*
X334645D01*
Y54610D01*
X326724D01*
Y55880D01*
X326408Y57466D01*
X325510Y58810D01*
X309155Y75165D01*
X307811Y76063D01*
X306225Y76379D01*
X274381D01*
X262073Y88687D01*
X262559Y89860D01*
X265576D01*
X265976Y89780D01*
D02*
G37*
G36*
X269735Y69305D02*
X271079Y68407D01*
X272665Y68091D01*
X304509D01*
X316817Y55783D01*
X316331Y54610D01*
X310515D01*
Y12700D01*
X278765D01*
Y54610D01*
X270844D01*
Y63200D01*
X270528Y64786D01*
X269630Y66130D01*
X247073Y88687D01*
X247559Y89860D01*
X249180D01*
X269735Y69305D01*
D02*
G37*
G36*
X262556Y61484D02*
Y54610D01*
X254635D01*
Y12700D01*
X250825D01*
Y54610D01*
X242904D01*
Y76140D01*
X242588Y77726D01*
X241690Y79070D01*
X232073Y88687D01*
X232559Y89860D01*
X234180D01*
X262556Y61484D01*
D02*
G37*
G36*
X234616Y74424D02*
Y54610D01*
X226695D01*
Y12700D01*
X222885D01*
Y54610D01*
X214964D01*
Y89080D01*
X215604Y89860D01*
X219180D01*
X234616Y74424D01*
D02*
G37*
G36*
X200356Y148085D02*
Y104940D01*
X198960D01*
Y89860D01*
X204180D01*
X206676Y87364D01*
Y54610D01*
X198755D01*
Y12700D01*
X194945D01*
Y54610D01*
X187024D01*
Y87064D01*
X189820Y89860D01*
X195040D01*
Y104940D01*
X193644D01*
Y143031D01*
X199183Y148571D01*
X200356Y148085D01*
D02*
G37*
G36*
X178736Y82339D02*
Y54610D01*
X170815D01*
Y12700D01*
X167005D01*
Y54610D01*
X159084D01*
Y64324D01*
X177430Y82670D01*
X177466Y82724D01*
X178736Y82339D01*
D02*
G37*
G36*
X146927Y88687D02*
X124070Y65830D01*
X123172Y64486D01*
X122856Y62900D01*
Y54610D01*
X114935D01*
Y12700D01*
X80645D01*
Y54610D01*
X77369D01*
X76883Y55783D01*
X90616Y69516D01*
X120760D01*
X122346Y69832D01*
X123690Y70730D01*
X142740Y89780D01*
X143024D01*
X143425Y89860D01*
X146441D01*
X146927Y88687D01*
D02*
G37*
G36*
X129927D02*
X119044Y77804D01*
X88900D01*
X87314Y77488D01*
X85970Y76590D01*
X67167Y57786D01*
X66268Y56442D01*
X65953Y54857D01*
Y54610D01*
X56515D01*
Y12700D01*
X50165D01*
Y54610D01*
X44349D01*
X43863Y55783D01*
X77916Y89836D01*
X128024D01*
X128143Y89860D01*
X129441D01*
X129927Y88687D01*
D02*
G37*
G36*
X102441Y106894D02*
X103785Y105996D01*
X105371Y105680D01*
X105371Y105680D01*
X117360D01*
X123646Y99394D01*
X123203Y98124D01*
X76200D01*
X74614Y97808D01*
X73270Y96910D01*
X34146Y57786D01*
X33248Y56442D01*
X32933Y54857D01*
Y54610D01*
X26035D01*
Y12700D01*
X12700D01*
Y114300D01*
X63500D01*
Y144176D01*
X64673Y144662D01*
X102441Y106894D01*
D02*
G37*
%LPC*%
G36*
X187040Y417040D02*
X177460D01*
Y410144D01*
X135000D01*
X133414Y409828D01*
X132070Y408930D01*
X78294Y355154D01*
X77396Y353810D01*
X77080Y352224D01*
Y311040D01*
X70184D01*
Y301460D01*
X92264D01*
Y311040D01*
X85367D01*
Y350508D01*
X136716Y401856D01*
X177460D01*
Y394960D01*
X187040D01*
Y417040D01*
D02*
G37*
G36*
X203540D02*
X193960D01*
Y394960D01*
X203540D01*
Y401856D01*
X251284D01*
X293356Y359784D01*
Y311040D01*
X286460D01*
Y301460D01*
X308540D01*
Y311040D01*
X301644D01*
Y319825D01*
X302817Y320311D01*
X322856Y300272D01*
Y239816D01*
X294570Y211530D01*
X293672Y210186D01*
X293356Y208600D01*
Y203040D01*
X286460D01*
Y193460D01*
X308540D01*
Y203040D01*
X301644D01*
Y206884D01*
X329930Y235170D01*
X330828Y236514D01*
X331144Y238100D01*
Y301988D01*
X330828Y303574D01*
X329930Y304918D01*
X307232Y327616D01*
Y363815D01*
X306916Y365400D01*
X306018Y366745D01*
X301644Y371119D01*
Y392960D01*
X308540D01*
Y402540D01*
X286460D01*
Y392960D01*
X293356D01*
Y373163D01*
X292183Y372677D01*
X255930Y408930D01*
X254586Y409828D01*
X253000Y410144D01*
X203540D01*
Y417040D01*
D02*
G37*
G36*
X299340Y57040D02*
X281760D01*
Y33960D01*
X299340D01*
Y57040D01*
D02*
G37*
G36*
X112240D02*
X94660D01*
Y33960D01*
X112240D01*
Y57040D01*
D02*
G37*
%LPD*%
D14*
X252250Y244000D02*
D03*
X235750D02*
D03*
X91750Y190000D02*
D03*
X75250D02*
D03*
X252250Y352000D02*
D03*
X235750D02*
D03*
X198750Y406000D02*
D03*
X182250D02*
D03*
D15*
X244000Y244000D02*
D03*
X83500Y190000D02*
D03*
X244000Y352000D02*
D03*
X190500Y406000D02*
D03*
D16*
X137000Y252250D02*
D03*
Y235750D02*
D03*
X297500Y181750D02*
D03*
Y198250D02*
D03*
Y397750D02*
D03*
Y414250D02*
D03*
X83500Y414250D02*
D03*
Y397750D02*
D03*
X190500Y306250D02*
D03*
Y289750D02*
D03*
X297500Y289750D02*
D03*
Y306250D02*
D03*
X81224Y306250D02*
D03*
Y289750D02*
D03*
X190500Y198250D02*
D03*
Y181750D02*
D03*
D17*
X137000Y244000D02*
D03*
X297500Y190000D02*
D03*
Y406000D02*
D03*
X83500Y406000D02*
D03*
X190500Y298000D02*
D03*
X297500Y298000D02*
D03*
X81224Y298000D02*
D03*
X190500Y190000D02*
D03*
D18*
X137000Y352000D02*
D03*
D19*
Y338000D02*
D03*
Y366000D02*
D03*
D20*
X182880Y33020D02*
D03*
X353060D02*
D03*
X322580D02*
D03*
X266700D02*
D03*
X238760D02*
D03*
X210820D02*
D03*
X154940D02*
D03*
X127000D02*
D03*
X68580D02*
D03*
X38100D02*
D03*
D21*
X159500Y139928D02*
D03*
X221500D02*
D03*
D22*
X103450Y45500D02*
D03*
X290550D02*
D03*
D23*
X264500Y97400D02*
D03*
X249500D02*
D03*
X234500D02*
D03*
X219500D02*
D03*
X204500D02*
D03*
X189500D02*
D03*
X174500D02*
D03*
X159500D02*
D03*
X144500D02*
D03*
X129500D02*
D03*
D24*
X137000Y370750D02*
D03*
X137000Y333250D02*
D03*
D35*
X366515Y167640D02*
X368300Y169426D01*
X299286Y167640D02*
X366515D01*
X297500Y169426D02*
X299286Y167640D01*
X297500Y169426D02*
Y181750D01*
X368300Y169426D02*
Y378460D01*
X135337Y208280D02*
X187960D01*
X190500Y198250D02*
Y205740D01*
X187960Y208280D02*
X190500Y205740D01*
X174500Y156720D02*
X190500Y172720D01*
X174500Y97400D02*
Y156720D01*
X190500Y172720D02*
Y181750D01*
X83500Y378308D02*
Y397750D01*
Y443897D02*
X87263Y447660D01*
X83500Y414250D02*
Y443897D01*
X87263Y447660D02*
X275340D01*
X297500Y414250D02*
Y425500D01*
Y369403D02*
Y397750D01*
Y369403D02*
X303088Y363815D01*
X297500Y198250D02*
Y208600D01*
X327000Y238100D01*
Y301988D01*
X225044Y165817D02*
Y240284D01*
X228760Y244000D02*
X235750D01*
X225044Y240284D02*
X228760Y244000D01*
X252250Y243820D02*
X252976Y243093D01*
X261620Y147320D02*
Y238760D01*
X252250Y243820D02*
Y244000D01*
X252976Y243093D02*
X257286D01*
X261620Y238760D01*
X190500Y306250D02*
Y312420D01*
X175260Y327660D02*
X190500Y312420D01*
X139761Y327660D02*
X175260D01*
X137000Y333250D02*
Y338000D01*
Y333250D02*
X137976Y332274D01*
Y329445D02*
X139761Y327660D01*
X137976Y329445D02*
Y332274D01*
X91750Y190000D02*
X119428D01*
X74844Y189594D02*
X75250Y190000D01*
X70213Y189594D02*
X74844D01*
X63500Y182880D02*
X70213Y189594D01*
X63500Y167500D02*
Y182880D01*
X137000Y251250D02*
Y290000D01*
Y218000D02*
Y236750D01*
Y218000D02*
X140000Y215000D01*
X190247D01*
X113000Y314000D02*
X137000Y290000D01*
X81224Y262393D02*
Y289750D01*
Y262393D02*
X135337Y208280D01*
X63500Y167500D02*
X110000Y121000D01*
X116436Y370183D02*
X130301Y384048D01*
X149536Y378460D02*
X175260D01*
X137000Y365924D02*
X149536Y378460D01*
X175260D02*
X219456Y334264D01*
X199167Y384048D02*
X231215Y352000D01*
X130301Y384048D02*
X199167D01*
X113000Y366000D02*
X116436Y369436D01*
Y370183D01*
X293512Y453248D02*
X368300Y378460D01*
X84948Y453248D02*
X293512D01*
X221500Y162273D02*
X225044Y165817D01*
X210324Y202826D02*
X213868Y199282D01*
X210324Y166902D02*
X213868Y170446D01*
X221500Y139928D02*
Y162273D01*
X210186Y158862D02*
X219456Y168132D01*
X213868Y170446D02*
Y199282D01*
X199010Y163491D02*
X208280Y172761D01*
X219456Y168132D02*
Y334264D01*
X190247Y215000D02*
X208280Y196967D01*
Y172761D02*
Y196967D01*
X190500Y222650D02*
X210324Y202826D01*
X204598Y161176D02*
X210324Y166902D01*
X210186Y120995D02*
X219500Y111681D01*
X189500Y144748D02*
X199010Y154258D01*
Y163491D01*
X210186Y120995D02*
Y158862D01*
X204598Y151943D02*
Y161176D01*
X50999Y345807D02*
X83500Y378308D01*
X81224Y306250D02*
Y352224D01*
X50999Y172099D02*
Y345807D01*
X81224Y352224D02*
X135000Y406000D01*
X272796Y142691D02*
Y248142D01*
X236220Y121920D02*
X261620Y147320D01*
X264500Y134395D02*
X272796Y142691D01*
X264500Y95400D02*
Y134395D01*
X249500Y127297D02*
X267208Y145005D01*
Y246922D01*
X272796Y248142D02*
X297500Y272846D01*
X251250Y262880D02*
X267208Y246922D01*
X249500Y95400D02*
Y127297D01*
X236220Y102662D02*
Y121920D01*
X235976Y102417D02*
X236220Y102662D01*
X234500Y97400D02*
X235976Y98876D01*
Y102417D01*
X234500Y95400D02*
Y97400D01*
X45411Y169784D02*
Y413711D01*
X84948Y453248D01*
X353060Y33020D02*
Y60960D01*
X320096Y93924D02*
X353060Y60960D01*
X265976Y93924D02*
X320096D01*
X154940Y33020D02*
Y66040D01*
X174500Y85600D01*
Y97400D01*
X306225Y72235D02*
X322580Y55880D01*
X272665Y72235D02*
X306225D01*
X322580Y33020D02*
Y55880D01*
X264500Y95400D02*
X265976Y93924D01*
X249500Y95400D02*
X272665Y72235D01*
X234500Y95400D02*
X266700Y63200D01*
Y33020D02*
Y63200D01*
X238760Y33020D02*
Y76140D01*
X219500Y95400D02*
X238760Y76140D01*
X219500Y95400D02*
Y97400D01*
Y111681D01*
X210820Y33020D02*
Y89080D01*
X204500Y95400D02*
X210820Y89080D01*
X204500Y95400D02*
Y97400D01*
X189500Y95400D02*
Y97400D01*
Y144748D01*
X182880Y33020D02*
Y88780D01*
X189500Y95400D01*
X127000Y62900D02*
X159500Y95400D01*
Y97400D01*
X127000Y33020D02*
Y62900D01*
X37076Y34044D02*
X38100Y33020D01*
X37076Y54857D02*
X76200Y93980D01*
X37076Y34044D02*
Y54857D01*
X76200Y93980D02*
X128024D01*
X70097Y34536D02*
Y54857D01*
X88900Y73660D02*
X120760D01*
X70097Y54857D02*
X88900Y73660D01*
X68580Y33020D02*
X70097Y34536D01*
X141024Y93924D02*
X143024D01*
X144500Y95400D02*
Y97400D01*
X143024Y93924D02*
X144500Y95400D01*
X120760Y73660D02*
X141024Y93924D01*
X128024Y93980D02*
X129500Y95456D01*
Y99400D01*
X303088Y325900D02*
X327000Y301988D01*
X253000Y406000D02*
X297500Y361500D01*
Y306250D02*
Y361500D01*
X303088Y325900D02*
Y363815D01*
X198750Y406000D02*
X253000D01*
X275340Y447660D02*
X297500Y425500D01*
X79360Y413524D02*
X79634Y413250D01*
X83500D01*
X190500Y222650D02*
Y289750D01*
X110000Y121000D02*
X137903D01*
X50999Y172099D02*
X107685Y115412D01*
X45411Y169784D02*
X105371Y109824D01*
X119076D01*
X107685Y115412D02*
X135588D01*
X119076Y109824D02*
X129500Y99400D01*
X139000Y112000D02*
Y112000D01*
X144402Y97499D02*
Y106599D01*
X137903Y121000D02*
X152994Y105909D01*
Y105906D02*
X159500Y99400D01*
X139000Y112000D02*
X144402Y106599D01*
X152994Y105906D02*
Y105909D01*
X144402Y97499D02*
X144500Y97400D01*
X135588Y115412D02*
X139000Y112000D01*
X297500Y272846D02*
Y289750D01*
X251250Y262880D02*
Y352000D01*
X204500Y97400D02*
Y151845D01*
X204598Y151943D01*
X231215Y352000D02*
X236750D01*
X113000Y314000D02*
Y366000D01*
X135000Y406000D02*
X182250D01*
X119428Y190000D02*
X159500Y149928D01*
Y139928D02*
Y149928D01*
X159500Y97400D02*
Y99400D01*
M02*
