**ABCDEFGHIJKLMNOPQRSTUVWXYZabcdefghijklmnopqrstuvwxyz**************************
**PARASOLID !"#$%&'()*+,-./:;<=>?@[\]^_`{|}~0123456789**************************
**PART1;
MC=AMD64;
MC_MODEL=AMD64 Family 23 Model 1 Stepping 2, AuthenticAMD;
MC_ID=unknown;
OS=Windows_NT;
OS_RELEASE=unknown;
FRU=CAD Exchanger 3.13.0 (cadexchanger.com);
APPL=unknown;
SITE=unknown;
USER=unknown;
FORMAT=text;
GUISE=transmit;
KEY=VIOSYS_Z5_CMP-124-0001-2;
FILE=VIOSYS_Z5_CMP-124-0001-2.x_t;
DATE=Thu Feb 16 22:15:56 2023;
**PART2;
SCH=SCH_1200000_12103;
USFLD_SIZE=0;
**PART3;
**END_OF_HEADER*****************************************************************
T51 : TRANSMIT FILE created by modeller version 120000017 SCH_1200000_121030 74
 3 1 3 0 2 543 644 12 2 363 0 3 0 0 0 0 1000.0 1.0e-08 0 0 0 1 0 1 1 12 14 20 18
 9 19 17 70 3 0 2 0 0 4 1 20 0 4 4 1 T74 20 4 1 0 5 0 0 0 0 0 0 0 0 0 0 0 0 0 0
 0 0 0 0 0 81 1 5 7 6 13 0 0 115 0 8 80 1 6 0 7 8001 0 0 0 0 3 5 0 0 0 FFFFTFTFF
FFFFF2 79 15 7 SDL/TYSA_COLOUR83 3 8 1.0 0.8666666746139526 0.529411792755127 19
 9 1 0 2 11 0 10 V13 10 2 0 2 0 0 0 0 9 13 19 11 3 0 2 0 9 12 S13 12 4 0 2 0 13
 0 0 11 0 14 13 5 5 1.0e-08 113 0 15 12 14 +0 0 113 0 10 50 14 6 0 13 114 0 0 +0
.00165005842 -0.0016499365 7.2277808000000006e-04 -6.1232339957367659e-17 3.7493
994566546438e-33 1.0 1.0 -6.1232339957367659e-17 6.1232339957367659e-17 15 15 8
 0 16 13 88 17 16 0 15 24 84 17 21 19 0 29 +18 17 9 0 16 0 22 18 ?2 29 18 10 0 1
7 23 0 0.00165005842 -0.0016499365 7.2277808000000006e-04 16 19 11 0 ?16 0 27 20
 0 0 2 30 20 12 0 19 28 0 0 +-0.00164994158 -0.0016499365 7.2277807999999988e-04
 1.0 7.0186105192390684e-17 6.1232339957367659e-17 17 21 0 309 314 310 22 16 19
 0 317 -18 22 13 0 21 17 25 23 ?2 29 23 14 0 22 26 18 -0.00164994158 -0.00164993
65 7.2277807999999988e-04 17 24 0 15 30 16 25 29 27 0 35 +18 25 15 0 24 22 31 26
 ?2 29 26 16 0 25 32 23 0.00165005842 -0.0011499365 7.2277808000000006e-04 16 27
 17 0 ?24 19 33 28 0 0 2 30 28 18 0 27 34 20 0 +0.00165005842 -0.0016499365 7.22
77808000000006e-04 6.1232339957367659e-17 1.0 0.0 17 29 0 322 313 323 17 24 27 0
 310 -17 30 0 15 36 24 31 35 33 0 41 +18 31 19 0 30 25 37 32 ?2 29 32 20 0 31 38
 26 1.2505842000000307e-04 -0.0011499365 7.2277807999999997e-04 16 33 21 0 ?30 2
7 39 34 0 0 2 30 34 22 0 33 40 28 0 +1.2505842000000307e-04 -0.0011499365 7.2277
807999999997e-04 -1.0 3.473803112370772e-15 -6.1232339957367659e-17 17 35 0 331
 326 332 25 30 33 0 323 -17 36 0 15 42 30 37 41 39 0 47 +18 37 23 0 36 31 43 38
 ?2 29 38 24 0 37 44 32 1.2505842000000027e-04 -7.4993650000000418e-04 7.2277807
999999997e-04 16 39 25 0 ?36 33 45 40 0 0 2 30 40 26 0 39 46 34 0 +1.25058420000
00307e-04 -0.0011499365 7.2277807999999997e-04 -6.9860817811987604e-15 1.0 -4.31
5235340529898e-31 17 41 0 340 335 341 31 36 39 0 332 -17 42 0 15 48 36 43 47 45
 0 53 +18 43 27 0 42 37 49 44 ?2 29 44 28 0 43 50 38 7.5005842000000058e-04 -7.4
993650000000756e-04 7.2277808000000006e-04 16 45 29 0 ?42 39 51 46 0 0 2 30 46 3
0 0 45 52 40 0 +1.2505842000000027e-04 -7.4993650000000418e-04 7.227780799999999
7e-04 1.0 -5.6123474630831468e-15 6.1232339957367659e-17 17 47 0 349 344 350 37
 42 45 0 341 -17 48 0 15 54 42 49 53 51 0 59 +18 49 31 0 48 43 55 50 ?2 29 50 32
 0 49 56 44 7.5005842000000068e-04 7.5006350000000408e-04 7.2277808000000006e-04
 16 51 33 0 ?48 45 57 52 0 0 2 30 52 34 0 51 58 46 0 +7.5005842000000058e-04 -7.
4993650000000756e-04 7.2277808000000006e-04 6.1232339957367659e-17 1.0 0.0 17 53
 0 358 353 359 43 48 51 0 350 -17 54 0 15 60 48 55 59 57 0 65 +18 55 35 0 54 49
 61 56 ?2 29 56 36 0 55 62 50 -7.499415799999973e-04 7.5006350000000408e-04 7.22
77807999999988e-04 16 57 37 0 ?54 51 63 58 0 0 2 30 58 38 0 57 64 52 0 +-7.49941
5799999973e-04 7.5006350000000408e-04 7.2277807999999988e-04 -1.0 6.123233995736
7659e-17 -6.1232339957367659e-17 17 59 0 367 362 368 49 54 57 0 359 -17 60 0 15
 66 54 61 65 63 0 71 +18 61 39 0 60 55 67 62 ?2 29 62 40 0 61 68 56 -7.499415800
0000076e-04 -7.4993649999999388e-04 7.2277807999999988e-04 16 63 41 0 ?60 57 69
 64 0 0 2 30 64 42 0 63 70 58 0 +-7.4994158000000076e-04 -7.4993649999999388e-04
 7.2277807999999988e-04 -2.3741969745931142e-15 -1.0 -1.4162823681738473e-31 17
 65 0 376 371 377 55 60 63 0 368 -17 66 0 15 72 60 67 71 69 0 77 +18 67 43 0 66
 61 73 68 ?2 29 68 44 0 67 74 62 -1.249415800000004e-04 -7.4993650000000418e-04
 7.2277807999999997e-04 16 69 45 0 ?66 63 75 70 0 0 2 30 70 46 0 69 76 64 0 +-7.
4994158000000076e-04 -7.4993649999999388e-04 7.2277807999999988e-04 1.0 -1.67145
77709334706e-14 6.1232339957367659e-17 17 71 0 385 380 386 61 66 69 0 377 -17 72
 0 15 78 66 73 77 75 0 83 +18 73 47 0 395 67 79 74 ?2 29 74 48 0 73 80 68 -1.249
4158000000322e-04 -0.0011499365 7.2277807999999997e-04 16 75 49 0 ?72 69 81 76 0
 0 2 30 76 50 0 75 82 70 0 +-1.2494158000000322e-04 -0.0011499365 7.227780799999
9997e-04 -7.1085464611134963e-15 -1.0 -4.315235340529898e-31 17 77 0 394 389 395
 67 72 75 0 386 -17 78 0 15 84 72 79 83 81 0 87 +18 79 51 0 404 73 90 80 ?2 29 8
0 52 0 79 91 74 -0.00164994158 -0.0011499365 7.2277807999999988e-04 16 81 53 0 ?
78 75 85 82 0 0 2 30 82 54 0 81 86 76 0 +-0.00164994158 -0.0011499365 7.22778079
99999988e-04 -1.0 -3.3513384324560369e-15 -6.1232339957367659e-17 17 83 0 403 39
8 404 73 78 81 0 0 -17 84 0 15 16 78 22 87 85 0 0 +16 85 55 0 ?84 81 92 86 0 0 2
 30 86 56 0 85 93 82 0 +-0.00164994158 -0.0016499365 7.2277807999999988e-04 8.06
12939803103423e-16 -1.0 5.3110588806519079e-32 17 87 0 412 407 317 79 84 85 0 0
 -15 88 57 0 89 13 0 17 89 0 88 97 109 90 94 92 0 102 -18 90 58 0 488 79 95 91 ?
2 29 91 59 0 90 96 80 6.5005841999999766e-04 -6.4993649999999842e-04 7.227780800
0000006e-04 16 92 60 0 ?94 85 100 93 0 0 2 30 93 61 0 92 101 86 0 +6.50058419999
99766e-04 -6.4993649999999842e-04 7.2277808000000006e-04 6.1232339957367659e-17
 1.0 0.0 17 94 0 503 504 488 95 89 92 0 509 +18 95 62 0 94 90 98 96 ?2 29 96 63
 0 95 99 91 6.5005841999999784e-04 6.5006349999999734e-04 7.2277808000000006e-04
 17 97 0 88 103 89 98 102 100 0 495 -18 98 64 0 97 95 104 99 ?2 29 99 65 0 98 10
5 96 -6.4994157999999748e-04 -6.4993649999999842e-04 7.2277807999999988e-04 16 1
00 66 0 ?102 92 106 101 0 0 2 30 101 67 0 100 107 93 0 +-6.4994157999999748e-04
 -6.4993649999999842e-04 7.2277807999999988e-04 1.0 -6.1232339957367659e-17 6.12
32339957367659e-17 17 102 0 482 483 495 90 97 100 0 0 +17 103 0 88 109 97 104 10
8 106 0 112 -18 104 68 0 103 98 119 105 ?2 29 105 69 0 104 120 99 -6.49941579999
99738e-04 6.5006349999999734e-04 7.2277807999999988e-04 16 106 70 0 ?108 100 110
 107 0 0 2 30 107 71 0 106 111 101 0 +-6.4994157999999748e-04 -6.499364999999984
2e-04 7.2277807999999988e-04 -6.1232339957367659e-17 -1.0 0.0 17 108 0 533 498 5
24 98 103 106 0 0 +17 109 0 88 89 103 95 112 110 0 0 -16 110 72 0 ?112 106 121 1
11 0 0 2 30 111 73 0 110 122 107 0 +-6.4994157999999738e-04 6.5006349999999734e-
04 7.2277807999999988e-04 -1.0 6.1232339957367659e-17 -6.1232339957367659e-17 17
 112 0 518 519 509 104 109 110 0 524 +14 113 74 115 1.0e-08 240 13 117 12 114 +0
 0 240 13 10 50 114 75 0 113 241 14 0 +0.00172505842 -0.0017249365 6.72778080000
00006e-04 -6.1232339957367659e-17 3.7493994566546438e-33 1.0 1.0 -6.123233995736
7659e-17 6.1232339957367659e-17 81 1 115 76 6 113 0 0 242 5 116 83 3 116 1.0 1.0
 1.0 15 117 77 0 118 113 142 17 118 0 117 126 138 119 123 121 0 131 +18 119 78 0
 253 104 124 120 ?2 29 120 79 0 119 125 105 0.00172505842 -0.0017249365 6.727780
8000000006e-04 16 121 80 0 ?118 110 129 122 0 0 2 30 122 81 0 121 130 111 0 +-0.
00172494158 -0.0017249365 6.7277807999999988e-04 1.0 -6.1232339957367659e-17 6.1
232339957367659e-17 17 123 0 244 257 253 124 118 121 0 0 -18 124 82 0 138 119 12
7 125 ?2 29 125 83 0 124 128 120 -0.00172494158 -0.0017249365 6.7277807999999988
e-04 17 126 0 117 132 118 127 131 129 0 0 +18 127 84 0 137 124 133 128 ?2 29 128
 85 0 127 134 125 0.00172505842 0.0017250635 6.7277808000000006e-04 16 129 86 0
 ?126 121 135 130 0 0 2 30 130 87 0 129 136 122 0 +0.00172505842 -0.0017249365 6
.7277808000000006e-04 6.1232339957367659e-17 1.0 0.0 17 131 0 265 256 272 119 12
6 129 0 0 -17 132 0 117 138 126 133 137 135 0 141 +18 133 88 0 132 127 144 134 ?
2 29 134 89 0 133 145 128 -0.00172494158 0.0017250635 6.7277807999999988e-04 16
 135 90 0 ?132 129 139 136 0 0 2 30 136 91 0 135 140 130 0 +-0.00172494158 0.001
7250635 6.7277807999999988e-04 -1.0 6.1232339957367659e-17 -6.1232339957367659e-
17 17 137 0 280 275 287 127 132 135 0 272 -17 138 0 117 118 132 124 141 139 0 26
0 +16 139 92 0 ?138 135 146 140 0 0 2 30 140 93 0 139 147 136 0 +-0.00172494158
 -0.0017249365 6.7277807999999988e-04 -2.0725059352927997e-15 -1.0 -1.2315498853
685629e-31 17 141 0 295 290 260 133 138 139 0 287 -15 142 94 0 143 113 215 17 14
3 0 142 151 211 144 148 146 0 156 -18 144 95 0 143 133 149 145 ?2 29 145 96 0 14
4 150 134 0.00165005842 -0.0016499365 6.7277808000000006e-04 16 146 97 0 ?148 13
9 154 147 0 0 2 30 147 98 0 146 155 140 0 +0.00165005842 -0.0016499365 6.7277808
000000006e-04 6.1232339957367659e-17 1.0 0.0 17 148 0 322 323 313 149 143 146 0
 326 +18 149 99 0 148 144 152 150 ?2 29 150 100 0 149 153 145 0.00165005842 -0.0
011499365 6.7277808000000006e-04 17 151 0 142 157 143 152 156 154 0 162 -18 152
 101 0 151 149 158 153 ?2 29 153 102 0 152 159 150 -0.00164994158 -0.0016499365
 6.7277807999999988e-04 16 154 103 0 ?156 146 160 155 0 0 2 30 155 104 0 154 161
 147 0 +-0.00164994158 -0.0016499365 6.7277807999999988e-04 1.0 7.01861051923906
84e-17 6.1232339957367659e-17 17 156 0 309 310 314 144 151 154 0 313 +17 157 0 1
42 163 151 158 162 160 0 168 -18 158 105 0 407 152 164 159 ?2 29 159 106 0 158 1
65 153 -0.00164994158 -0.0011499365 6.7277807999999988e-04 16 160 107 0 ?162 154
 166 161 0 0 2 30 161 108 0 160 167 155 0 +-0.00164994158 -0.0016499365 6.727780
7999999988e-04 8.0612939803103423e-16 -1.0 5.3110588806519079e-32 17 162 0 412 3
17 407 152 157 160 0 314 +17 163 0 142 169 157 164 168 166 0 174 -18 164 109 0 3
98 158 170 165 ?2 29 165 110 0 164 171 159 -1.2494158000000322e-04 -0.0011499365
 6.7277808000000006e-04 16 166 111 0 ?168 160 172 167 0 0 2 30 167 112 0 166 173
 161 0 +-0.00164994158 -0.0011499365 6.7277807999999988e-04 -1.0 -3.351338432456
0369e-15 -6.1232339957367659e-17 17 168 0 403 404 398 158 163 166 0 0 +17 169 0
 142 175 163 170 174 172 0 180 -18 170 113 0 169 164 176 171 ?2 29 171 114 0 170
 177 165 -1.249415800000004e-04 -7.4993650000000418e-04 6.7277808000000006e-04 1
6 172 115 0 ?174 166 178 173 0 0 2 30 173 116 0 172 179 167 0 +-1.24941580000003
22e-04 -0.0011499365 6.7277808000000006e-04 -7.1085464611134963e-15 -1.0 -4.3152
35340529898e-31 17 174 0 394 395 389 164 169 172 0 0 +17 175 0 142 181 169 176 1
80 178 0 186 -18 176 117 0 175 170 182 177 ?2 29 177 118 0 176 183 171 -7.499415
8000000076e-04 -7.4993649999999388e-04 6.7277807999999998e-04 16 178 119 0 ?180
 172 184 179 0 0 2 30 179 120 0 178 185 173 0 +-7.4994158000000076e-04 -7.499364
9999999388e-04 6.7277807999999998e-04 1.0 -1.6714577709334706e-14 6.123233995736
7659e-17 17 180 0 385 386 380 170 175 178 0 389 +17 181 0 142 187 175 182 186 18
4 0 192 -18 182 121 0 181 176 188 183 ?2 29 183 122 0 182 189 177 -7.49941579999
9973e-04 7.5006350000000408e-04 6.7277807999999998e-04 16 184 123 0 ?186 178 190
 185 0 0 2 30 185 124 0 184 191 179 0 +-7.4994158000000076e-04 -7.49936499999993
88e-04 6.7277807999999998e-04 -2.3741969745931142e-15 -1.0 -1.4162823681738473e-
31 17 186 0 376 377 371 176 181 184 0 380 +17 187 0 142 193 181 188 192 190 0 19
8 -18 188 125 0 187 182 194 189 ?2 29 189 126 0 188 195 183 7.5005842000000068e-
04 7.5006350000000408e-04 6.7277808000000006e-04 16 190 127 0 ?192 184 196 191 0
 0 2 30 191 128 0 190 197 185 0 +-7.499415799999973e-04 7.5006350000000408e-04 6
.7277807999999998e-04 -1.0 6.1232339957367659e-17 -6.1232339957367659e-17 17 192
 0 367 368 362 182 187 190 0 371 +17 193 0 142 199 187 194 198 196 0 204 -18 194
 129 0 193 188 200 195 ?2 29 195 130 0 194 201 189 7.5005842000000058e-04 -7.499
3650000000756e-04 6.7277808000000006e-04 16 196 131 0 ?198 190 202 197 0 0 2 30
 197 132 0 196 203 191 0 +7.5005842000000058e-04 -7.4993650000000756e-04 6.72778
08000000006e-04 6.1232339957367659e-17 1.0 0.0 17 198 0 358 359 353 188 193 196
 0 362 +17 199 0 142 205 193 200 204 202 0 210 -18 200 133 0 199 194 206 201 ?2
 29 201 134 0 200 207 195 1.2505842000000027e-04 -7.4993650000000418e-04 6.72778
08000000006e-04 16 202 135 0 ?204 196 208 203 0 0 2 30 203 136 0 202 209 197 0 +
1.2505842000000027e-04 -7.4993650000000418e-04 6.7277808000000006e-04 1.0 -5.612
3474630831468e-15 6.1232339957367659e-17 17 204 0 349 350 344 194 199 202 0 353
 +17 205 0 142 211 199 206 210 208 0 214 -18 206 137 0 335 200 217 207 ?2 29 207
 138 0 206 218 201 1.2505842000000307e-04 -0.0011499365 6.7277808000000006e-04 1
6 208 139 0 ?210 202 212 209 0 0 2 30 209 140 0 208 213 203 0 +1.250584200000030
7e-04 -0.0011499365 6.7277808000000006e-04 -6.9860817811987604e-15 1.0 -4.315235
340529898e-31 17 210 0 340 341 335 200 205 208 0 344 +17 211 0 142 143 205 149 2
14 212 0 0 -16 212 141 0 ?214 208 219 213 0 0 2 30 213 142 0 212 220 209 0 +1.25
05842000000307e-04 -0.0011499365 6.7277808000000006e-04 -1.0 3.473803112370772e-
15 -6.1232339957367659e-17 17 214 0 331 332 326 206 211 212 0 0 +15 215 143 0 21
6 113 0 17 216 0 215 224 236 217 221 219 0 229 -18 217 144 0 423 206 222 218 ?2
 29 218 145 0 217 223 207 -0.00164994158 0.0016500635 6.7277807999999988e-04 16
 219 146 0 ?221 212 227 220 0 0 2 30 220 147 0 219 228 213 0 +-0.00164994158 0.0
016500635 6.7277807999999988e-04 3.7244852903683482e-16 -1.0 2.6555294403259638e
-32 17 221 0 438 439 423 222 216 219 0 236 +18 222 148 0 444 217 225 223 ?2 29 2
23 149 0 222 226 218 -0.00164994158 0.0011500635 6.7277807999999988e-04 17 224 0
 215 230 216 225 229 227 0 235 -18 225 150 0 430 222 231 226 ?2 29 226 151 0 225
 232 223 0.00165005842 0.0016500635 6.7277808000000006e-04 16 227 152 0 ?229 219
 233 228 0 0 2 30 228 153 0 227 234 220 0 +-0.00164994158 0.0016500635 6.7277807
999999988e-04 -1.0 -7.0186105192390684e-17 -6.1232339957367659e-17 17 229 0 417
 418 430 217 224 227 0 0 +17 230 0 215 236 224 231 235 233 0 239 -18 231 154 0 4
59 225 246 232 ?2 29 232 155 0 231 247 226 0.00165005842 0.0011500635 6.72778080
00000006e-04 16 233 156 0 ?235 227 237 234 0 0 2 30 234 157 0 233 238 228 0 +0.0
0165005842 0.0016500635 6.7277808000000006e-04 -3.7244852903683442e-16 1.0 -2.65
55294403259612e-32 17 235 0 468 433 459 225 230 233 0 0 +17 236 0 215 216 230 22
2 239 237 0 0 -16 237 158 0 ?239 233 248 238 0 0 2 30 238 159 0 237 249 234 0 +-
0.00164994158 0.0011500635 6.7277807999999988e-04 1.0 -6.1232339957367659e-17 6.
1232339957367659e-17 17 239 0 453 454 444 231 236 237 0 0 +14 240 160 242 1.0e-0
8 261 113 244 12 241 -0 0 261 113 10 50 241 161 0 240 262 114 0 +-0.00172494158
 -0.0017249365 6.7277807999999988e-04 6.1232339957367659e-17 1.0 0.0 -1.0 6.1232
339957367659e-17 -6.1232339957367659e-17 81 1 242 162 6 240 0 0 263 115 243 83 3
 243 1.0 1.0 1.0 15 244 163 0 245 240 0 17 245 0 244 253 257 246 250 248 0 256 +
18 246 164 0 245 231 251 247 ?2 29 247 165 0 246 252 232 0.00172505842 -0.001724
9365 1.2778080000000081e-05 16 248 166 0 ?245 237 254 249 0 0 2 30 249 167 0 248
 255 238 0 +-0.00172494158 -0.0017249365 1.2778079999999859e-05 1.0 -6.123233995
7367659e-17 6.1232339957367659e-17 17 250 0 304 299 271 251 245 248 0 257 -18 25
1 168 0 250 246 267 252 ?2 29 252 169 0 251 268 247 -0.00172494158 -0.0017249365
 1.2778079999999859e-05 17 253 0 244 123 245 119 256 254 0 118 -16 254 170 0 ?25
6 248 258 255 0 0 2 30 255 171 0 254 259 249 0 +0.00172505842 -0.0017249365 6.72
77808000000006e-04 6.1232339957367659e-17 -3.7493994566546438e-33 -1.0 17 256 0
 265 266 131 246 253 254 0 271 +17 257 0 244 245 123 251 260 258 0 296 +16 258 1
72 0 ?257 254 269 259 0 0 2 30 259 173 0 258 270 255 0 +-0.00172494158 -0.001724
9365 6.7277807999999988e-04 6.1232339957367659e-17 -3.7493994566546438e-33 -1.0
 17 260 0 295 141 296 124 257 258 0 123 -14 261 174 263 1.0e-08 276 240 265 12 2
62 -0 0 276 240 10 50 262 175 0 261 277 241 0 +0.00172505842 -0.0017249365 6.727
7808000000006e-04 -1.0 6.1232339957367659e-17 -6.1232339957367659e-17 -6.1232339
957367659e-17 -1.0 0.0 81 1 263 176 6 261 0 0 278 242 264 83 3 264 1.0 1.0 1.0 1
5 265 177 0 266 261 0 17 266 0 265 272 256 267 271 269 0 275 +18 267 178 0 266 2
51 282 268 ?2 29 268 179 0 267 283 252 0.00172505842 0.0017250635 1.277808000000
0081e-05 16 269 180 0 ?266 258 273 270 0 0 2 30 270 181 0 269 274 259 0 +0.00172
505842 -0.0017249365 1.2778080000000081e-05 6.1232339957367659e-17 1.0 0.0 17 27
1 0 304 250 286 246 266 269 0 0 -17 272 0 265 131 266 127 275 273 0 126 -16 273
 182 0 ?275 269 284 274 0 0 2 30 274 183 0 273 285 270 0 +0.00172505842 0.001725
0635 6.7277808000000006e-04 6.1232339957367659e-17 -3.7493994566546438e-33 -1.0
 17 275 0 280 281 137 267 272 273 0 286 +14 276 184 278 1.0e-08 291 261 280 12 2
77 -0 0 291 261 10 50 277 185 0 276 292 262 0 +-0.00172494158 0.0017250635 6.727
7807999999988e-04 -6.1232339957367659e-17 -1.0 0.0 1.0 -6.1232339957367659e-17 6
.1232339957367659e-17 81 1 278 186 6 276 0 0 293 263 279 83 3 279 1.0 1.0 1.0 15
 280 187 0 281 276 0 17 281 0 280 287 275 282 286 284 0 290 +18 282 188 0 281 26
7 419 283 ?2 29 283 189 0 282 420 268 -0.00172494158 0.0017250635 1.277807999999
9859e-05 16 284 190 0 ?281 273 288 285 0 0 2 30 285 191 0 284 289 274 0 +-0.0017
2494158 0.0017250635 1.2778079999999859e-05 -1.0 6.1232339957367659e-17 -6.12323
39957367659e-17 17 286 0 304 271 299 267 281 284 0 0 -17 287 0 280 137 281 133 2
90 288 0 0 -16 288 192 0 ?290 284 297 289 0 0 2 30 289 193 0 288 298 285 0 +-0.0
0172494158 0.0017250635 6.7277807999999988e-04 6.1232339957367659e-17 -3.7493994
566546438e-33 -1.0 17 290 0 295 296 141 282 287 288 0 299 +14 291 194 293 1.0e-0
8 300 276 295 12 292 -0 0 300 276 10 50 292 195 0 291 301 277 0 +-0.00172494158
 -0.0017249365 6.7277807999999988e-04 1.0 -2.0725059352927997e-15 6.123233995736
7659e-17 2.0725059352927997e-15 1.0 1.2315498853685629e-31 81 1 293 196 6 291 0
 0 302 278 294 83 3 294 1.0 1.0 1.0 15 295 197 0 296 291 0 17 296 0 295 260 290
 251 299 297 0 0 +16 297 198 0 ?296 288 311 298 0 0 2 30 298 199 0 297 312 289 0
 +-0.00172494158 -0.0017249365 1.2778079999999859e-05 -2.0725059352927997e-15 -1
.0 -1.2315498853685629e-31 17 299 0 304 286 250 282 296 297 0 0 -14 300 200 302
 1.0e-08 305 291 304 12 301 -0 0 305 291 10 50 301 201 0 300 306 292 0 +0.001725
05842 -0.0017249365 1.2778080000000081e-05 -6.1232339957367659e-17 3.74939945665
46438e-33 1.0 1.0 -6.1232339957367659e-17 6.1232339957367659e-17 81 1 302 202 6
 300 0 0 307 293 303 83 3 303 1.0 1.0 1.0 15 304 203 0 250 300 0 14 305 204 307
 1.0e-08 318 300 309 12 306 -0 0 318 300 10 50 306 205 0 305 319 301 0 +-0.00164
994158 -0.0016499365 7.2277807999999988e-04 -7.0186105192390684e-17 1.0 -8.04705
89100786789e-33 -1.0 -7.0186105192390684e-17 -6.1232339957367659e-17 81 1 307 20
6 6 305 0 0 320 302 308 83 3 308 1.0 0.8666666746139526 0.529411792755127 15 309
 207 0 156 305 0 17 310 0 309 21 156 17 313 311 0 0 -16 311 208 0 ?313 297 315 3
12 0 0 2 30 312 209 0 311 316 298 0 +0.00165005842 -0.0016499365 7.2277808000000
006e-04 6.1232339957367659e-17 -3.7493994566546438e-33 -1.0 17 313 0 322 148 29
 144 310 311 0 0 +17 314 0 309 156 21 152 317 315 0 0 +16 315 210 0 ?314 311 324
 316 0 0 2 30 316 211 0 315 325 312 0 +-0.00164994158 -0.0016499365 7.2277807999
999988e-04 6.1232339957367659e-17 -3.7493994566546438e-33 -1.0 17 317 0 412 87 1
62 22 314 315 0 84 -14 318 212 320 1.0e-08 327 305 322 12 319 -0 0 327 305 10 50
 319 213 0 318 328 306 0 +0.00165005842 -0.0016499365 7.2277808000000006e-04 -1.
0 6.1232339957367659e-17 -6.1232339957367659e-17 -6.1232339957367659e-17 -1.0 0.
0 81 1 320 214 6 318 0 0 329 307 321 83 3 321 1.0 0.8666666746139526 0.529411792
755127 15 322 215 0 148 318 0 17 323 0 322 29 148 25 326 324 0 0 -16 324 216 0 ?
326 315 333 325 0 0 2 30 325 217 0 324 334 316 0 +0.00165005842 -0.0011499365 7.
2277808000000006e-04 6.1232339957367659e-17 -3.7493994566546438e-33 -1.0 17 326
 0 331 214 35 149 323 324 0 211 +14 327 218 329 1.0e-08 336 318 331 12 328 -0 0
 336 318 10 50 328 219 0 327 337 319 0 +1.2505842000000307e-04 -0.0011499365 7.2
277807999999997e-04 -3.4738031123707724e-15 -1.0 -2.0895969366499436e-31 1.0 -3.
4738031123707724e-15 6.1232339957367659e-17 81 1 329 220 6 327 0 0 338 320 330 8
3 3 330 1.0 0.8666666746139526 0.529411792755127 15 331 221 0 214 327 0 17 332 0
 331 35 214 31 335 333 0 0 -16 333 222 0 ?335 324 342 334 0 0 2 30 334 223 0 333
 343 325 0 +1.2505842000000307e-04 -0.0011499365 7.2277807999999997e-04 6.123233
9957367659e-17 -3.7493994566546438e-33 -1.0 17 335 0 340 210 41 206 332 333 0 20
5 +14 336 224 338 1.0e-08 345 327 340 12 337 -0 0 345 327 10 50 337 225 0 336 34
6 328 0 +1.2505842000000307e-04 -0.0011499365 7.2277807999999997e-04 -1.0 -6.986
0817811987604e-15 -6.1232339957367659e-17 6.9860817811987604e-15 -1.0 4.31523534
0529898e-31 81 1 338 226 6 336 0 0 347 329 339 83 3 339 1.0 0.8666666746139526 0
.529411792755127 15 340 227 0 210 336 0 17 341 0 340 41 210 37 344 342 0 0 -16 3
42 228 0 ?344 333 351 343 0 0 2 30 343 229 0 342 352 334 0 +1.2505842000000027e-
04 -7.4993650000000418e-04 7.2277807999999997e-04 6.1232339957367659e-17 -3.7493
994566546438e-33 -1.0 17 344 0 349 204 47 200 341 342 0 0 +14 345 230 347 1.0e-0
8 354 336 349 12 346 -0 0 354 336 10 50 346 231 0 345 355 337 0 +1.2505842000000
029e-04 -7.4993650000000418e-04 7.2277807999999997e-04 5.6123474630831468e-15 1.
0 3.3990776836172256e-31 -1.0 5.6123474630831468e-15 -6.1232339957367659e-17 81
 1 347 232 6 345 0 0 356 338 348 83 3 348 1.0 0.8666666746139526 0.5294117927551
27 15 349 233 0 204 345 0 17 350 0 349 47 204 43 353 351 0 0 -16 351 234 0 ?353
 342 360 352 0 0 2 30 352 235 0 351 361 343 0 +7.5005842000000058e-04 -7.4993650
000000756e-04 7.2277808000000006e-04 6.1232339957367659e-17 -3.7493994566546438e
-33 -1.0 17 353 0 358 198 53 194 350 351 0 0 +14 354 236 356 1.0e-08 363 345 358
 12 355 -0 0 363 345 10 50 355 237 0 354 364 346 0 +7.5005842000000058e-04 -7.49
93650000000756e-04 7.2277808000000006e-04 -1.0 6.1232339957367659e-17 -6.1232339
957367659e-17 -6.1232339957367659e-17 -1.0 0.0 81 1 356 238 6 354 0 0 365 347 35
7 83 3 357 1.0 0.8666666746139526 0.529411792755127 15 358 239 0 198 354 0 17 35
9 0 358 53 198 49 362 360 0 0 -16 360 240 0 ?362 351 369 361 0 0 2 30 361 241 0
 360 370 352 0 +7.5005842000000068e-04 7.5006350000000408e-04 7.2277808000000006
e-04 6.1232339957367659e-17 -3.7493994566546438e-33 -1.0 17 362 0 367 192 59 188
 359 360 0 0 +14 363 242 365 1.0e-08 372 354 367 12 364 -0 0 372 354 10 50 364 2
43 0 363 373 355 0 +-7.499415799999973e-04 7.5006350000000408e-04 7.227780799999
9988e-04 -6.1232339957367659e-17 -1.0 0.0 1.0 -6.1232339957367659e-17 6.12323399
57367659e-17 81 1 365 244 6 363 0 0 374 356 366 83 3 366 1.0 0.8666666746139526
 0.529411792755127 15 367 245 0 192 363 0 17 368 0 367 59 192 55 371 369 0 0 -16
 369 246 0 ?371 360 378 370 0 0 2 30 370 247 0 369 379 361 0 +-7.499415799999973
e-04 7.5006350000000408e-04 7.2277807999999988e-04 6.1232339957367659e-17 -3.749
3994566546438e-33 -1.0 17 371 0 376 186 65 182 368 369 0 0 +14 372 248 374 1.0e-
08 381 363 376 12 373 -0 0 381 363 10 50 373 249 0 372 382 364 0 +-7.49941580000
00076e-04 -7.4993649999999388e-04 7.2277807999999988e-04 1.0 -2.3741969745931142
e-15 6.1232339957367659e-17 2.3741969745931142e-15 1.0 1.4162823681738473e-31 81
 1 374 250 6 372 0 0 383 365 375 83 3 375 1.0 0.8666666746139526 0.5294117927551
27 15 376 251 0 186 372 0 17 377 0 376 65 186 61 380 378 0 0 -16 378 252 0 ?380
 369 387 379 0 0 2 30 379 253 0 378 388 370 0 +-7.4994158000000076e-04 -7.499364
9999999388e-04 7.2277807999999988e-04 6.1232339957367659e-17 -3.7493994566546438
e-33 -1.0 17 380 0 385 180 71 176 377 378 0 0 +14 381 254 383 1.0e-08 390 372 38
5 12 382 -0 0 390 372 10 50 382 255 0 381 391 373 0 +-7.4994158000000076e-04 -7.
4993649999999388e-04 7.2277807999999988e-04 1.6714577709334706e-14 1.0 1.0197233
050851677e-30 -1.0 1.6714577709334706e-14 -6.1232339957367659e-17 81 1 383 256 6
 381 0 0 392 374 384 83 3 384 1.0 0.8666666746139526 0.529411792755127 15 385 25
7 0 180 381 0 17 386 0 385 71 180 67 389 387 0 0 -16 387 258 0 ?389 378 396 388
 0 0 2 30 388 259 0 387 397 379 0 +-1.249415800000004e-04 -7.4993650000000418e-0
4 7.2277807999999997e-04 6.1232339957367659e-17 -3.7493994566546438e-33 -1.0 17
 389 0 394 174 77 170 386 387 0 0 +14 390 260 392 1.0e-08 399 381 394 12 391 -0
 0 399 381 10 50 391 261 0 390 400 382 0 +-1.2494158000000322e-04 -0.0011499365
 7.2277807999999997e-04 1.0 -7.1085464611134963e-15 6.1232339957367659e-17 7.108
5464611134963e-15 1.0 4.315235340529898e-31 81 1 392 262 6 390 0 0 401 383 393 8
3 3 393 1.0 0.8666666746139526 0.529411792755127 15 394 263 0 174 390 0 17 395 0
 394 77 174 73 398 396 0 72 -16 396 264 0 ?398 387 405 397 0 0 2 30 397 265 0 39
6 406 388 0 +-1.2494158000000322e-04 -0.0011499365 7.2277807999999997e-04 6.1232
339957367659e-17 -3.7493994566546438e-33 -1.0 17 398 0 403 168 83 164 395 396 0
 163 +14 399 266 401 1.0e-08 408 390 403 12 400 -0 0 408 390 10 50 400 267 0 399
 409 391 0 +-0.00164994158 -0.0011499365 7.2277807999999988e-04 3.35133843245603
74e-15 -1.0 2.0895969366499436e-31 1.0 3.3513384324560374e-15 6.1232339957367659
e-17 81 1 401 268 6 399 0 0 410 392 402 83 3 402 1.0 0.8666666746139526 0.529411
792755127 15 403 269 0 168 399 0 17 404 0 403 83 168 79 407 405 0 78 -16 405 270
 0 ?407 396 421 406 0 0 2 30 406 271 0 405 422 397 0 +-0.00164994158 -0.00114993
65 7.2277807999999988e-04 6.1232339957367659e-17 -3.7493994566546438e-33 -1.0 17
 407 0 412 162 87 158 404 405 0 157 +14 408 272 410 1.0e-08 413 399 412 12 409 -
0 0 413 399 10 50 409 273 0 408 414 400 0 +-0.00164994158 -0.0016499365 7.227780
7999999988e-04 1.0 8.0612939803103441e-16 6.1232339957367659e-17 -8.061293980310
3441e-16 1.0 -5.3110588806519097e-32 81 1 410 274 6 408 0 0 415 401 411 83 3 411
 1.0 0.8666666746139526 0.529411792755127 15 412 275 0 162 408 0 14 413 276 415
 1.0e-08 434 408 417 12 414 -0 0 434 408 10 50 414 277 0 413 435 409 0 +-0.00164
994158 0.0016500635 7.2277807999999988e-04 7.0186105192390684e-17 -1.0 8.0470589
100786789e-33 1.0 7.0186105192390684e-17 6.1232339957367659e-17 81 1 415 278 6 4
13 0 0 436 410 416 83 3 416 1.0 0.8666666746139526 0.529411792755127 15 417 279
 0 229 413 0 17 418 0 417 424 229 419 423 421 0 429 -18 419 280 0 418 282 425 42
0 ?2 29 420 281 0 419 426 283 -0.00164994158 0.0016500635 7.2277807999999988e-04
 16 421 282 0 ?423 405 427 422 0 0 2 30 422 283 0 421 428 406 0 +-0.00164994158
 0.0016500635 7.2277807999999988e-04 6.1232339957367659e-17 -3.7493994566546438e
-33 -1.0 17 423 0 438 221 445 217 418 421 0 216 +17 424 0 417 430 418 425 429 42
7 0 433 -18 425 284 0 424 419 440 426 ?2 29 426 285 0 425 441 420 0.00165005842
 0.0016500635 7.2277808000000006e-04 16 427 286 0 ?429 421 431 428 0 0 2 30 428
 287 0 427 432 422 0 +-0.00164994158 0.0016500635 7.2277807999999988e-04 -1.0 -7
.0186105192390684e-17 -6.1232339957367659e-17 17 429 0 477 448 472 419 424 427 0
 445 +17 430 0 417 229 424 225 433 431 0 224 +16 431 288 0 ?430 427 442 432 0 0
 2 30 432 289 0 431 443 428 0 +0.00165005842 0.0016500635 7.2277808000000006e-04
 6.1232339957367659e-17 -3.7493994566546438e-33 -1.0 17 433 0 468 469 235 425 43
0 431 0 472 -14 434 290 436 1.0e-08 449 413 438 12 435 -0 0 449 413 10 50 435 29
1 0 434 450 414 0 +-0.00164994158 0.0016500635 7.2277807999999988e-04 1.0 3.7244
852903683482e-16 6.1232339957367659e-17 -3.7244852903683482e-16 1.0 -2.655529440
3259638e-32 81 1 436 292 6 434 0 0 451 415 437 83 3 437 1.0 0.8666666746139526 0
.529411792755127 15 438 293 0 221 434 0 17 439 0 438 445 221 440 444 442 0 448 -
18 440 294 0 439 425 455 441 ?2 29 441 295 0 440 456 426 -0.00164994158 0.001150
0635 7.2277807999999988e-04 16 442 296 0 ?444 431 446 443 0 0 2 30 443 297 0 442
 447 432 0 +-0.00164994158 0.0011500635 7.2277807999999988e-04 6.123233995736765
9e-17 -3.7493994566546438e-33 -1.0 17 444 0 453 239 460 222 439 442 0 221 +17 44
5 0 438 423 439 419 448 446 0 0 -16 446 298 0 ?448 442 457 447 0 0 2 30 447 299
 0 446 458 443 0 +-0.00164994158 0.0016500635 7.2277807999999988e-04 3.724485290
3683482e-16 -1.0 2.6555294403259638e-32 17 448 0 477 463 429 440 445 446 0 460 +
14 449 300 451 1.0e-08 464 434 453 12 450 -0 0 464 434 10 50 450 301 0 449 465 4
35 0 +-0.00164994158 0.0011500635 7.2277807999999988e-04 6.1232339957367659e-17
 1.0 0.0 -1.0 6.1232339957367659e-17 -6.1232339957367659e-17 81 1 451 302 6 449
 0 0 466 436 452 83 3 452 1.0 0.8666666746139526 0.529411792755127 15 453 303 0
 239 449 0 17 454 0 453 460 239 455 459 457 0 463 -18 455 304 0 454 440 484 456
 ?2 29 456 305 0 455 485 441 0.00165005842 0.0011500635 7.2277808000000006e-04 1
6 457 306 0 ?459 446 461 458 0 0 2 30 458 307 0 457 462 447 0 +0.00165005842 0.0
011500635 7.2277808000000006e-04 6.1232339957367659e-17 -3.7493994566546438e-33
 -1.0 17 459 0 468 235 469 231 454 457 0 230 +17 460 0 453 444 454 440 463 461 0
 0 -16 461 308 0 ?463 457 470 462 0 0 2 30 462 309 0 461 471 458 0 +-0.001649941
58 0.0011500635 7.2277807999999988e-04 1.0 -6.1232339957367659e-17 6.12323399573
67659e-17 17 463 0 477 472 448 455 460 461 0 469 +14 464 310 466 1.0e-08 473 449
 468 12 465 -0 0 473 449 10 50 465 311 0 464 474 450 0 +0.00165005842 0.00165006
35 7.2277808000000006e-04 -1.0 -3.7244852903683446e-16 -6.1232339957367659e-17 3
.7244852903683446e-16 -1.0 2.6555294403259616e-32 81 1 466 312 6 464 0 0 475 451
 467 83 3 467 1.0 0.8666666746139526 0.529411792755127 15 468 313 0 235 464 0 17
 469 0 468 459 433 455 472 470 0 0 -16 470 314 0 ?472 461 486 471 0 0 2 30 471 3
15 0 470 487 462 0 +0.00165005842 0.0016500635 7.2277808000000006e-04 -3.7244852
903683442e-16 1.0 -2.6555294403259612e-32 17 472 0 477 429 463 425 469 470 0 0 +
14 473 316 475 1.0e-08 478 464 477 12 474 -0 0 478 464 10 50 474 317 0 473 479 4
65 0 +0.00165005842 0.0016500635 7.2277808000000006e-04 6.1232339957367659e-17 -
3.7493994566546438e-33 -1.0 -1.0 6.1232339957367659e-17 -6.1232339957367659e-17
 81 1 475 318 6 473 0 0 480 466 476 83 3 476 1.0 0.8666666746139526 0.5294117927
55127 15 477 319 0 429 473 0 14 478 320 480 1.0e-08 499 473 482 12 479 -0 0 499
 473 10 50 479 321 0 478 500 474 0 +-6.4994157999999748e-04 -6.4993649999999842e
-04 8.2277807999999997e-04 6.1232339957367659e-17 1.0 0.0 -1.0 6.123233995736765
9e-17 -6.1232339957367659e-17 81 1 480 322 6 478 0 0 501 475 481 83 3 481 0.9686
274528503418 0.8784313797950746 0.600000023841858 15 482 323 0 102 478 0 17 483
 0 482 489 102 484 488 486 0 494 -18 484 324 0 483 455 490 485 ?2 29 485 325 0 4
84 491 456 6.5005841999999766e-04 -6.4993649999999842e-04 8.2277807999999997e-04
 16 486 326 0 ?488 470 492 487 0 0 2 30 487 327 0 486 493 471 0 +6.5005841999999
766e-04 -6.4993649999999842e-04 8.2277807999999997e-04 6.1232339957367659e-17 -3
.7493994566546438e-33 -1.0 17 488 0 503 94 510 90 483 486 0 89 +17 489 0 482 495
 483 490 494 492 0 498 -18 490 328 0 489 484 505 491 ?2 29 491 329 0 490 506 485
 -6.4994157999999748e-04 -6.4993649999999842e-04 8.2277807999999997e-04 16 492 3
30 0 ?494 486 496 493 0 0 2 30 493 331 0 492 497 487 0 +-6.4994157999999748e-04
 -6.4993649999999842e-04 8.2277807999999997e-04 1.0 -6.1232339957367659e-17 6.12
32339957367659e-17 17 494 0 542 513 537 484 489 492 0 510 +17 495 0 482 102 489
 98 498 496 0 108 +16 496 332 0 ?495 492 507 497 0 0 2 30 497 333 0 496 508 493
 0 +-6.4994157999999748e-04 -6.4993649999999842e-04 8.2277807999999997e-04 6.123
2339957367659e-17 -3.7493994566546438e-33 -1.0 17 498 0 533 534 108 490 495 496
 0 537 -14 499 334 501 1.0e-08 514 478 503 12 500 -0 0 514 478 10 50 500 335 0 4
99 515 479 0 +6.5005841999999766e-04 -6.4993649999999842e-04 8.2277807999999997e
-04 -1.0 6.1232339957367659e-17 -6.1232339957367659e-17 -6.1232339957367659e-17
 -1.0 0.0 81 1 501 336 6 499 0 0 516 480 502 83 3 502 0.9686274528503418 0.87843
13797950746 0.600000023841858 15 503 337 0 94 499 0 17 504 0 503 510 94 505 509
 507 0 513 -18 505 338 0 504 490 520 506 ?2 29 506 339 0 505 521 491 6.500584199
9999784e-04 6.5006349999999734e-04 8.2277807999999997e-04 16 507 340 0 ?509 496
 511 508 0 0 2 30 508 341 0 507 512 497 0 +6.5005841999999784e-04 6.500634999999
9734e-04 8.2277807999999997e-04 6.1232339957367659e-17 -3.7493994566546438e-33 -
1.0 17 509 0 518 112 525 95 504 507 0 109 +17 510 0 503 488 504 484 513 511 0 0
 -16 511 342 0 ?513 507 522 512 0 0 2 30 512 343 0 511 523 508 0 +6.500584199999
9766e-04 -6.4993649999999842e-04 8.2277807999999997e-04 6.1232339957367659e-17 1
.0 0.0 17 513 0 542 528 494 505 510 511 0 525 +14 514 344 516 1.0e-08 529 499 51
8 12 515 -0 0 529 499 10 50 515 345 0 514 530 500 0 +-6.4994157999999738e-04 6.5
006349999999734e-04 8.2277807999999997e-04 -6.1232339957367659e-17 -1.0 0.0 1.0
 -6.1232339957367659e-17 6.1232339957367659e-17 81 1 516 346 6 514 0 0 531 501 5
17 83 3 517 0.9686274528503418 0.8784313797950746 0.600000023841858 15 518 347 0
 112 514 0 17 519 0 518 525 112 520 524 522 0 528 -18 520 348 0 519 505 0 521 ?2
 29 521 349 0 520 0 506 -6.4994157999999738e-04 6.5006349999999734e-04 8.2277807
999999997e-04 16 522 350 0 ?524 511 526 523 0 0 2 30 523 351 0 522 527 512 0 +-6
.4994157999999738e-04 6.5006349999999734e-04 8.2277807999999997e-04 6.1232339957
367659e-17 -3.7493994566546438e-33 -1.0 17 524 0 533 108 534 104 519 522 0 0 +17
 525 0 518 509 519 505 528 526 0 0 -16 526 352 0 ?528 522 535 527 0 0 2 30 527 3
53 0 526 536 523 0 +-6.4994157999999738e-04 6.5006349999999734e-04 8.22778079999
99997e-04 -1.0 6.1232339957367659e-17 -6.1232339957367659e-17 17 528 0 542 537 5
13 520 525 526 0 534 +14 529 354 531 1.0e-08 538 514 533 12 530 -0 0 538 514 10
 50 530 355 0 529 539 515 0 +-6.4994157999999748e-04 -6.4993649999999842e-04 8.2
277807999999997e-04 1.0 -6.1232339957367659e-17 6.1232339957367659e-17 6.1232339
957367659e-17 1.0 0.0 81 1 531 356 6 529 0 0 540 516 532 83 3 532 0.968627452850
3418 0.8784313797950746 0.600000023841858 15 533 357 0 108 529 0 17 534 0 533 52
4 498 520 537 535 0 0 -16 535 358 0 ?537 526 0 536 0 0 2 30 536 359 0 535 0 527
 0 +-6.4994157999999748e-04 -6.4993649999999842e-04 8.2277807999999997e-04 -6.12
32339957367659e-17 -1.0 0.0 17 537 0 542 494 528 490 534 535 0 0 +14 538 360 540
 1.0e-08 0 529 542 12 539 +0 0 0 529 10 50 539 361 0 538 0 530 0 +6.500584199999
9766e-04 -6.4993649999999842e-04 8.2277807999999997e-04 -6.1232339957367659e-17
 3.7493994566546438e-33 1.0 1.0 -6.1232339957367659e-17 6.1232339957367659e-17 8
1 1 540 362 6 538 0 0 0 531 541 83 3 541 0.9686274528503418 0.8784313797950746 0
.600000023841858 15 542 363 0 494 538 0 12 543 68 0 544 0 0 0 0 1000.0 1.0e-08 0
 0 0 1 0 1 1 551 553 559 557 548 558 556 70 544 0 543 0 0 4 1 20 0 545 545 1 T74
 20 545 1 0 546 0 0 0 0 0 0 0 0 0 0 0 0 0 0 0 0 0 0 0 81 1 546 7 6 552 0 0 581 0
 547 83 3 547 1.0 1.0 1.0 19 548 1 0 543 550 0 549 V13 549 2 0 543 0 0 0 0 548 5
52 19 550 3 0 543 0 548 551 S13 551 4 0 543 0 552 0 0 550 0 14 552 5 546 1.0e-08
 579 0 554 551 553 -0 0 579 0 549 50 553 6 0 552 580 0 0 +-0.00172494158 0.00172
50635 0.0057018148701872 1.0 -2.0725059352927997e-15 6.1232339957367659e-17 2.07
25059352927997e-15 1.0 1.2315498853685629e-31 15 554 8 0 555 552 0 17 555 0 554
 563 575 556 560 558 0 568 -18 556 9 0 555 0 561 557 ?543 29 557 10 0 556 562 0
 -0.00172494158 0.0017250635 7.727780799999997e-04 16 558 11 0 ?560 0 566 559 0
 0 543 30 559 12 0 558 567 0 0 +-0.00172494158 0.0017250635 7.727780799999997e-0
4 -2.0725059352927997e-15 -1.0 -1.2315498853685629e-31 17 560 0 643 587 629 561
 555 558 0 575 +18 561 13 0 560 556 564 562 ?543 29 562 14 0 561 565 557 -0.0017
2494158 -0.0017249365 7.7277808000000158e-04 17 563 0 554 569 555 564 568 566 0
 574 +18 564 15 0 563 561 570 565 ?543 29 565 16 0 564 571 562 -0.00172494158 0.
0017250635 6.7277807999999988e-04 16 566 17 0 ?563 558 572 567 0 0 543 30 567 18
 0 566 573 559 0 +-0.00172494158 0.0017250635 0.0057018148701872 6.1232339957367
659e-17 -3.7493994566546438e-33 -1.0 17 568 0 625 626 630 556 563 566 0 629 -17
 569 0 554 575 563 570 574 572 0 578 +18 570 19 0 569 564 588 571 ?543 29 571 20
 0 570 589 565 -0.00172494158 -0.0017249365 6.7277807999999988e-04 16 572 21 0 ?
569 566 576 573 0 0 543 30 573 22 0 572 577 567 0 +-0.00172494158 0.0017250635 6
.7277807999999988e-04 -2.0725059352927997e-15 -1.0 -1.2315498853685629e-31 17 57
4 0 638 633 595 564 569 572 0 630 -17 575 0 554 555 569 561 578 576 0 584 -16 57
6 23 0 ?578 572 585 577 0 0 543 30 577 24 0 576 586 573 0 +-0.00172494158 -0.001
7249365 0.0057018148701872 6.1232339957367659e-17 -3.7493994566546438e-33 -1.0 1
7 578 0 583 590 584 570 575 576 0 595 +14 579 25 581 1.0e-08 600 552 583 551 580
 -0 0 600 552 549 50 580 26 0 579 601 553 0 +-0.00172494158 -0.0017249365 0.0057
018148701872 6.1232339957367659e-17 1.0 0.0 -1.0 6.1232339957367659e-17 -6.12323
39957367659e-17 81 1 581 27 6 579 0 0 602 546 582 83 3 582 1.0 1.0 1.0 15 583 28
 0 584 579 0 17 584 0 583 578 596 561 587 585 0 0 -16 585 29 0 ?587 576 593 586
 0 0 543 30 586 30 0 585 594 577 0 +-0.00172494158 -0.0017249365 7.7277807999999
97e-04 1.0 -6.1232339957367659e-17 6.1232339957367659e-17 17 587 0 643 608 560 5
88 584 585 0 0 +18 588 31 0 596 570 591 589 ?543 29 589 32 0 588 592 571 0.00172
505842 -0.0017249365 7.7277808000000174e-04 17 590 0 583 596 578 591 595 593 0 0
 +18 591 33 0 599 588 609 592 ?543 29 592 34 0 591 610 589 0.00172505842 -0.0017
249365 6.7277808000000006e-04 16 593 35 0 ?590 585 597 594 0 0 543 30 594 36 0 5
93 598 586 0 +-0.00172494158 -0.0017249365 6.7277807999999988e-04 1.0 -6.1232339
957367659e-17 6.1232339957367659e-17 17 595 0 638 574 616 570 590 593 0 0 -17 59
6 0 583 584 590 588 599 597 0 605 -16 597 37 0 ?599 593 606 598 0 0 543 30 598 3
8 0 597 607 594 0 +0.00172505842 -0.0017249365 0.0057018148701872 6.123233995736
7659e-17 -3.7493994566546438e-33 -1.0 17 599 0 604 611 605 591 596 597 0 616 +14
 600 39 602 1.0e-08 621 579 604 551 601 -0 0 621 579 549 50 601 40 0 600 622 580
 0 +0.00172505842 -0.0017249365 0.0057018148701872 -1.0 6.1232339957367659e-17 -
6.1232339957367659e-17 -6.1232339957367659e-17 -1.0 0.0 81 1 602 41 6 600 0 0 62
3 581 603 83 3 603 1.0 1.0 1.0 15 604 42 0 605 600 0 17 605 0 604 599 617 588 60
8 606 0 587 -16 606 43 0 ?608 597 614 607 0 0 543 30 607 44 0 606 615 598 0 +0.0
0172505842 -0.0017249365 7.7277807999999988e-04 6.1232339957367659e-17 1.0 0.0 1
7 608 0 643 629 587 609 605 606 0 617 +18 609 45 0 608 591 612 610 ?543 29 610 4
6 0 609 613 592 0.00172505842 0.0017250635 7.7277808000000174e-04 17 611 0 604 6
17 599 612 616 614 0 620 +18 612 47 0 611 609 0 613 ?543 29 613 48 0 612 0 610 0
.00172505842 0.0017250635 6.7277808000000006e-04 16 614 49 0 ?611 606 618 615 0
 0 543 30 615 50 0 614 619 607 0 +0.00172505842 -0.0017249365 6.7277808000000006
e-04 6.1232339957367659e-17 1.0 0.0 17 616 0 638 595 633 591 611 614 0 590 -17 6
17 0 604 605 611 609 620 618 0 626 -16 618 51 0 ?620 614 627 619 0 0 543 30 619
 52 0 618 628 615 0 +0.00172505842 0.0017250635 0.0057018148701872 6.12323399573
67659e-17 -3.7493994566546438e-33 -1.0 17 620 0 625 630 626 612 617 618 0 633 +1
4 621 53 623 1.0e-08 634 600 625 551 622 -0 0 634 600 549 50 622 54 0 621 635 60
1 0 +0.00172505842 0.0017250635 0.0057018148701872 -6.1232339957367659e-17 -1.0
 0.0 1.0 -6.1232339957367659e-17 6.1232339957367659e-17 81 1 623 55 6 621 0 0 63
6 602 624 83 3 624 1.0 1.0 1.0 15 625 56 0 626 621 0 17 626 0 625 620 568 609 62
9 627 0 0 -16 627 57 0 ?629 618 631 628 0 0 543 30 628 58 0 627 632 619 0 +0.001
72505842 0.0017250635 7.7277807999999988e-04 -1.0 6.1232339957367659e-17 -6.1232
339957367659e-17 17 629 0 643 560 608 556 626 627 0 0 +17 630 0 625 568 620 564
 633 631 0 0 +16 631 59 0 ?630 627 0 632 0 0 543 30 632 60 0 631 0 628 0 +0.0017
2505842 0.0017250635 6.7277808000000006e-04 -1.0 6.1232339957367659e-17 -6.12323
39957367659e-17 17 633 0 638 616 574 612 630 631 0 0 -14 634 61 636 1.0e-08 639
 621 638 551 635 -0 0 639 621 549 50 635 62 0 634 640 622 0 +-0.00172494158 -0.0
017249365 6.7277807999999988e-04 -6.1232339957367659e-17 3.7493994566546438e-33
 1.0 1.0 -6.1232339957367659e-17 6.1232339957367659e-17 81 1 636 63 6 634 0 0 64
1 623 637 83 3 637 1.0 1.0 1.0 15 638 64 0 574 634 0 14 639 65 641 1.0e-08 0 634
 643 551 640 +0 0 0 634 549 50 640 66 0 639 0 635 0 +0.00165005842 -0.0016499365
 7.7277808000000014e-04 -6.1232339957367659e-17 3.7493994566546438e-33 1.0 1.0 -
6.1232339957367659e-17 6.1232339957367659e-17 81 1 641 67 6 639 0 0 0 636 642 83
 3 642 1.0 1.0 1.0 15 643 68 0 629 639 0 12 644 50 0 645 0 0 0 0 1000.0 1.0e-08
 0 0 0 1 0 1 1 652 654 660 658 649 659 657 70 645 0 644 0 0 4 1 20 0 646 646 1 T
74 20 646 1 0 647 0 0 0 0 0 0 0 0 0 0 0 0 0 0 0 0 0 0 0 81 1 647 7 6 653 0 0 682
 0 648 83 3 648 1.0 1.0 1.0 19 649 1 0 644 651 0 650 V13 650 2 0 644 0 0 0 0 649
 653 19 651 3 0 644 0 649 652 S13 652 4 0 644 0 653 0 0 651 0 14 653 5 647 1.0e-
08 680 0 655 652 654 -0 0 680 0 650 54 654 6 0 653 681 0 0 +5.8419999999967542e-
08 6.3500000000000006e-08 8.727780800000014e-04 -6.1232339957367659e-17 3.749399
4566546438e-33 1.0 0.00135 0.9999999999999996e-04 1.0 -6.1232339957367659e-17 6.
1232339957367659e-17 15 655 8 0 656 653 0 17 656 0 655 664 676 657 661 659 0 685
 -18 657 9 0 669 0 662 658 ?644 29 658 10 0 657 663 0 -0.0012505915101342 6.3500
000000229742e-08 8.6139547846716074e-04 16 659 11 0 ?661 0 667 660 0 0 644 31 66
0 12 0 659 668 0 0 +5.8419999999968236e-08 6.3500000000000006e-08 8.613954784671
6092e-04 -6.1232339957367659e-17 3.7493994566546438e-33 1.0 1.0 -6.1232339957367
659e-17 6.1232339957367659e-17 0.0012506499301342 17 661 0 684 691 685 662 656 6
59 0 694 +18 662 13 0 676 657 665 663 ?644 29 663 14 0 662 666 658 0.00125070835
01342 6.3499999999923418e-08 8.613954784671611e-04 17 664 0 655 670 656 665 669
 667 0 709 +18 665 15 0 675 662 671 666 ?644 29 666 16 0 665 672 663 -0.00134994
158 6.3500000000248003e-08 7.727780800000013e-04 16 667 17 0 ?664 659 673 668 0
 0 644 31 668 18 0 667 674 660 0 +-0.00134994158 6.3500000000248003e-08 8.727780
8000000122e-04 1.8369701987210296e-16 1.0 7.4987989133092876e-33 -1.0 1.83697019
87210296e-16 -6.1232339957367659e-17 1.0000000000000002e-04 17 669 0 708 703 709
 657 664 667 0 656 -17 670 0 655 676 664 671 675 673 0 712 +18 671 19 0 679 665
 689 672 ?644 29 672 20 0 671 690 666 0.00135005842 6.3499999999917325e-08 7.727
7808000000158e-04 16 673 21 0 ?670 667 677 674 0 0 644 31 674 22 0 673 678 668 0
 +5.8419999999973662e-08 6.3500000000000006e-08 7.7277808000000158e-04 -6.123233
9957367659e-17 3.7493994566546438e-33 1.0 1.0 -6.1232339957367659e-17 6.12323399
57367659e-17 0.00135 17 675 0 717 712 712 665 670 673 0 664 -17 676 0 655 656 67
0 662 679 677 0 661 -16 677 23 0 ?679 673 686 678 0 0 644 31 678 24 0 677 687 67
4 0 +0.00135005842 6.3499999999917325e-08 8.727780800000014e-04 -6.1232339957367
659e-17 -1.0 0.0 1.0 -6.1232339957367659e-17 6.1232339957367659e-17 1.0000000000
000002e-04 17 679 0 708 709 703 671 676 677 0 670 +14 680 25 682 1.0e-08 695 653
 684 652 681 -0 0 695 653 650 54 681 26 0 680 696 654 0 +5.8419999999977296e-08
 6.3500000000000006e-08 7.1342165854024406e-04 -6.1232339957367659e-17 3.7493994
566546438e-33 1.0 4.0900978121576754e-05 0.0013 1.0 -6.1232339957367659e-17 6.12
32339957367659e-17 81 1 682 27 6 680 0 0 697 647 683 83 3 683 1.0 1.0 1.0 15 684
 28 0 685 680 0 17 685 0 684 661 691 657 688 686 0 700 -16 686 29 0 ?688 677 692
 687 0 0 644 31 687 30 0 686 693 678 0 +4.0959398121576731e-05 6.349999999999249
2e-08 7.1342165854024406e-04 1.8369701987210296e-16 1.0 7.4987989133092876e-33 -
1.0 1.8369701987210296e-16 -6.1232339957367659e-17 0.0013 17 688 0 699 694 700 6
89 685 686 0 0 +18 689 31 0 691 671 0 690 ?644 29 690 32 0 689 0 672 5.841999999
9897732e-08 6.3499999999999997e-08 0.00201277808 17 691 0 684 685 661 689 694 69
2 0 688 +16 692 33 0 ?691 686 701 693 0 0 644 31 693 34 0 692 702 687 0 +-4.0842
558121576778e-05 6.350000000000251e-08 7.1342165854024406e-04 -6.123233995736765
9e-17 -1.0 0.0 1.0 -6.1232339957367659e-17 6.1232339957367659e-17 0.0013 17 694
 0 699 700 688 662 691 692 0 703 -14 695 35 697 1.0e-08 704 680 699 652 696 -0 0
 704 680 650 54 696 36 0 695 705 681 0 +5.8419999999977296e-08 6.350000000000000
6e-08 7.1342165854024406e-04 -6.1232339957367659e-17 3.7493994566546438e-33 1.0
 4.0900978121576754e-05 0.0013 1.0 -6.1232339957367659e-17 6.1232339957367659e-1
7 81 1 697 37 6 695 0 0 706 682 698 83 3 698 1.0 1.0 1.0 15 699 38 0 700 695 0 1
7 700 0 699 688 694 657 703 701 0 0 +16 701 39 0 ?700 692 710 702 0 0 644 31 702
 40 0 701 711 693 0 +5.8419999999968236e-08 6.3500000000000006e-08 8.61395478467
16092e-04 -6.1232339957367659e-17 3.7493994566546438e-33 1.0 1.0 -6.123233995736
7659e-17 6.1232339957367659e-17 0.0012506499301342 17 703 0 708 679 669 662 700
 701 0 0 -14 704 41 706 1.0e-08 713 695 708 652 705 -0 0 713 695 650 54 705 42 0
 704 714 696 0 +5.8419999999967542e-08 6.3500000000000006e-08 8.727780800000014e
-04 -6.1232339957367659e-17 3.7493994566546438e-33 1.0 0.00135 0.999999999999999
6e-04 1.0 -6.1232339957367659e-17 6.1232339957367659e-17 81 1 706 43 6 704 0 0 7
15 697 707 83 3 707 1.0 1.0 1.0 15 708 44 0 669 704 0 17 709 0 708 669 679 665 7
12 710 0 0 +16 710 45 0 ?709 701 0 711 0 0 644 31 711 46 0 710 0 702 0 +5.841999
9999973662e-08 6.3500000000000006e-08 7.7277808000000158e-04 -6.1232339957367659
e-17 3.7493994566546438e-33 1.0 1.0 -6.1232339957367659e-17 6.1232339957367659e-
17 0.00135 17 712 0 717 675 675 671 709 710 0 0 -14 713 47 715 1.0e-08 0 704 717
 652 714 +0 0 0 704 650 50 714 48 0 713 0 705 0 +5.8419999999891e-08 -0.00134993
65 7.7277808000000158e-04 6.1232339957367659e-17 -3.7493994566546438e-33 -1.0 -1
.0 6.1232339957367659e-17 -6.1232339957367659e-17 81 1 715 49 6 713 0 0 0 706 71
6 83 3 716 1.0 1.0 1.0 15 717 50 0 712 713 0 1 0 
