<svg width="38.0000002mm" height="48.99999852mm" viewBox="0 0 14960630 19291338"  version="1.1" xmlns="http://www.w3.org/2000/svg" xmlns:xlink="http://www.w3.org/1999/xlink">
<desc>
Origin 11000000 11500000 Bound 10993531 11408383 14960630 19291338
</desc>
<g fill-rule="evenodd" fill="rgb(128, 0, 128)" stroke="black" stroke-width="1" transform="translate(0, 19291338) scale(1, -1) translate(-10993531, -11408383)">
<path id="N" d="M 25954161.00 11408383.00 L 10993531.00 11408383.00 L 10993531.00 30699721.00 L 25954161.00 30699721.00 L 25954161.00 11408383.00  zM 12915000.00 13590000.00 L 12085000.00 13590000.00 L 12085000.00 12010000.00 L 12915000.00 12010000.00 L 12915000.00 13590000.00  zM 14115000.00 13590000.00 L 13285000.00 13590000.00 L 13285000.00 12010000.00 L 14115000.00 12010000.00 L 14115000.00 13590000.00  zM 15318898.00 13645668.00 L 14826772.00 13645668.00 L 14826772.00 12937008.00 L 15318898.00 12937008.00 L 15318898.00 13645668.00  zM 16415000.00 13590000.00 L 15585000.00 13590000.00 L 15585000.00 12010000.00 L 16415000.00 12010000.00 L 16415000.00 13590000.00  zM 16216536.00 15531495.00 L 15980316.00 15531495.00 L 15980316.00 15137795.00 L 16216536.00 15137795.00 L 16216536.00 15531495.00  zM 17515000.00 13590000.00 L 16685000.00 13590000.00 L 16685000.00 12010000.00 L 17515000.00 12010000.00 L 17515000.00 13590000.00  zM 18615000.00 13590000.00 L 17785000.00 13590000.00 L 17785000.00 12010000.00 L 18615000.00 12010000.00 L 18615000.00 13590000.00  zM 17397638.00 15531495.00 L 17161418.00 15531495.00 L 17161418.00 15137795.00 L 17397638.00 15137795.00 L 17397638.00 15531495.00  zM 17988189.00 15531495.00 L 17751969.00 15531495.00 L 17751969.00 15137795.00 L 17988189.00 15137795.00 L 17988189.00 15531495.00  zM 12181100.45 16874022.40 m -645602.60 0 a 645602.60 645602.60 0 1 1 1291205.19 0a 645602.60 645602.60 0 1 1 -1291205.19 0M 14070866.00 19334645.00 L 13854332.00 19334645.00 L 13854332.00 18625985.00 L 14070866.00 18625985.00 L 14070866.00 19334645.00  zM 14415355.00 19334645.00 L 14159451.00 19334645.00 L 14159451.00 18625985.00 L 14415355.00 18625985.00 L 14415355.00 19334645.00  zM 14720472.00 19334645.00 L 14503938.00 19334645.00 L 14503938.00 18625985.00 L 14720472.00 18625985.00 L 14720472.00 19334645.00  zM 16807087.00 15531495.00 L 16570867.00 15531495.00 L 16570867.00 15137795.00 L 16807087.00 15137795.00 L 16807087.00 15531495.00  zM 18578740.00 15531495.00 L 18342520.00 15531495.00 L 18342520.00 15137795.00 L 18578740.00 15137795.00 L 18578740.00 15531495.00  zM 17604960.00 17728120.00 L 16954094.00 17728120.00 L 16954094.00 16289852.00 L 17604960.00 16289852.00 L 17604960.00 17728120.00  zM 18854330.00 19108268.00 L 18145670.00 19108268.00 L 18145670.00 18852364.00 L 18854330.00 18852364.00 L 18854330.00 19108268.00  zM 19715000.00 13590000.00 L 18885000.00 13590000.00 L 18885000.00 12010000.00 L 19715000.00 12010000.00 L 19715000.00 13590000.00  zM 20815000.00 13590000.00 L 19985000.00 13590000.00 L 19985000.00 12010000.00 L 20815000.00 12010000.00 L 20815000.00 13590000.00  zM 20350394.00 15531495.00 L 20114174.00 15531495.00 L 20114174.00 15137795.00 L 20350394.00 15137795.00 L 20350394.00 15531495.00  zM 19169292.00 15531495.00 L 18933072.00 15531495.00 L 18933072.00 15137795.00 L 19169292.00 15137795.00 L 19169292.00 15531495.00  zM 21531496.00 15531495.00 L 21295276.00 15531495.00 L 21295276.00 15137795.00 L 21531496.00 15137795.00 L 21531496.00 15531495.00  zM 21915000.00 13590000.00 L 21085000.00 13590000.00 L 21085000.00 12010000.00 L 21915000.00 12010000.00 L 21915000.00 13590000.00  zM 22685040.00 13645668.00 L 22192914.00 13645668.00 L 22192914.00 12937008.00 L 22685040.00 12937008.00 L 22685040.00 13645668.00  zM 24115000.00 13590000.00 L 23285000.00 13590000.00 L 23285000.00 12010000.00 L 24115000.00 12010000.00 L 24115000.00 13590000.00  zM 25315000.00 13590000.00 L 24485000.00 13590000.00 L 24485000.00 12010000.00 L 25315000.00 12010000.00 L 25315000.00 13590000.00  zM 19759843.00 15531495.00 L 19523623.00 15531495.00 L 19523623.00 15137795.00 L 19759843.00 15137795.00 L 19759843.00 15531495.00  zM 20045905.00 17728120.00 L 19395039.00 17728120.00 L 19395039.00 16289852.00 L 20045905.00 16289852.00 L 20045905.00 17728120.00  zM 18854330.00 18763779.00 L 18145670.00 18763779.00 L 18145670.00 18547245.00 L 18854330.00 18547245.00 L 18854330.00 18763779.00  zM 18854330.00 19413385.00 L 18145670.00 19413385.00 L 18145670.00 19196851.00 L 18854330.00 19196851.00 L 18854330.00 19413385.00  zM 20940945.00 15531495.00 L 20704725.00 15531495.00 L 20704725.00 15137795.00 L 20940945.00 15137795.00 L 20940945.00 15531495.00  zM 23066928.00 18763780.00 L 22358268.00 18763780.00 L 22358268.00 18547246.00 L 23066928.00 18547246.00 L 23066928.00 18763780.00  zM 23066928.00 19108267.00 L 22358268.00 19108267.00 L 22358268.00 18852363.00 L 23066928.00 18852363.00 L 23066928.00 19108267.00  zM 24779526.45 16874022.40 m -645602.60 0 a 645602.60 645602.60 0 1 1 1291205.19 0a 645602.60 645602.60 0 1 1 -1291205.19 0M 14552119.00 23015747.00 L 13843459.00 23015747.00 L 13843459.00 22799213.00 L 14552119.00 22799213.00 L 14552119.00 23015747.00  zM 16748031.00 21539369.00 L 16039371.00 21539369.00 L 16039371.00 21322835.00 L 16748031.00 21322835.00 L 16748031.00 21539369.00  zM 16748031.00 20889763.00 L 16039371.00 20889763.00 L 16039371.00 20673229.00 L 16748031.00 20673229.00 L 16748031.00 20889763.00  zM 14552119.00 23665353.00 L 13843459.00 23665353.00 L 13843459.00 23448819.00 L 14552119.00 23448819.00 L 14552119.00 23665353.00  zM 14552119.00 23360236.00 L 13843459.00 23360236.00 L 13843459.00 23104332.00 L 14552119.00 23104332.00 L 14552119.00 23360236.00  zM 16748031.00 21234252.00 L 16039371.00 21234252.00 L 16039371.00 20978348.00 L 16748031.00 20978348.00 L 16748031.00 21234252.00  zM 18854330.00 23360236.00 L 18145670.00 23360236.00 L 18145670.00 23104332.00 L 18854330.00 23104332.00 L 18854330.00 23360236.00  zM 18854330.00 23015747.00 L 18145670.00 23015747.00 L 18145670.00 22799213.00 L 18854330.00 22799213.00 L 18854330.00 23015747.00  zM 18854330.00 23665353.00 L 18145670.00 23665353.00 L 18145670.00 23448819.00 L 18854330.00 23448819.00 L 18854330.00 23665353.00  zM 14641732.00 27267715.00 L 13933072.00 27267715.00 L 13933072.00 27051181.00 L 14641732.00 27051181.00 L 14641732.00 27267715.00  zM 14641732.00 27612204.00 L 13933072.00 27612204.00 L 13933072.00 27356300.00 L 14641732.00 27356300.00 L 14641732.00 27612204.00  zM 12181100.45 29610242.40 m -645602.60 0 a 645602.60 645602.60 0 1 1 1291205.19 0a 645602.60 645602.60 0 1 1 -1291205.19 0M 14641732.00 27917321.00 L 13933072.00 27917321.00 L 13933072.00 27700787.00 L 14641732.00 27700787.00 L 14641732.00 27917321.00  zM 17083307.00 24945512.00 L 15704095.00 24945512.00 L 15704095.00 24668662.00 L 16295275.00 24668662.00 L 16295275.00 24511818.00 L 16492125.00 24511818.00 L 16492125.00 24668662.00 L 17083307.00 24668662.00 L 17083307.00 24945512.00  zM 17083307.00 25654173.00 L 15704095.00 25654173.00 L 15704095.00 25062363.00 L 17083307.00 25062363.00 L 17083307.00 25654173.00  zM 16492127.00 26204718.00 L 16295277.00 26204718.00 L 16295277.00 26047874.00 L 15704095.00 26047874.00 L 15704095.00 25771024.00 L 17083307.00 25771024.00 L 17083307.00 26047874.00 L 16492127.00 26047874.00 L 16492127.00 26204718.00  zM 18283463.00 27838582.00 L 18066929.00 27838582.00 L 18066929.00 27129922.00 L 18283463.00 27129922.00 L 18283463.00 27838582.00  zM 20389763.00 21460629.00 L 20173229.00 21460629.00 L 20173229.00 20751969.00 L 20389763.00 20751969.00 L 20389763.00 21460629.00  zM 20734252.00 21460629.00 L 20478348.00 21460629.00 L 20478348.00 20751969.00 L 20734252.00 20751969.00 L 20734252.00 21460629.00  zM 23066928.00 19413386.00 L 22358268.00 19413386.00 L 22358268.00 19196852.00 L 23066928.00 19196852.00 L 23066928.00 19413386.00  zM 21039369.00 21460629.00 L 20822835.00 21460629.00 L 20822835.00 20751969.00 L 21039369.00 20751969.00 L 21039369.00 21460629.00  zM 23066928.00 23015748.00 L 22358268.00 23015748.00 L 22358268.00 22799214.00 L 23066928.00 22799214.00 L 23066928.00 23015748.00  zM 23066928.00 23360235.00 L 22358268.00 23360235.00 L 22358268.00 23104331.00 L 23066928.00 23104331.00 L 23066928.00 23360235.00  zM 20734252.00 25712598.00 L 20478348.00 25712598.00 L 20478348.00 25003938.00 L 20734252.00 25003938.00 L 20734252.00 25712598.00  zM 23066928.00 23665354.00 L 22358268.00 23665354.00 L 22358268.00 23448820.00 L 23066928.00 23448820.00 L 23066928.00 23665354.00  zM 20389763.00 25712598.00 L 20173229.00 25712598.00 L 20173229.00 25003938.00 L 20389763.00 25003938.00 L 20389763.00 25712598.00  zM 21039369.00 25712598.00 L 20822835.00 25712598.00 L 20822835.00 25003938.00 L 21039369.00 25003938.00 L 21039369.00 25712598.00  zM 18933069.00 27838582.00 L 18716535.00 27838582.00 L 18716535.00 27129922.00 L 18933069.00 27129922.00 L 18933069.00 27838582.00  zM 18627952.00 27838582.00 L 18372048.00 27838582.00 L 18372048.00 27129922.00 L 18627952.00 27129922.00 L 18627952.00 27838582.00  zM 23066928.00 27267716.00 L 22358268.00 27267716.00 L 22358268.00 27051182.00 L 23066928.00 27051182.00 L 23066928.00 27267716.00  zM 23066928.00 27612203.00 L 22358268.00 27612203.00 L 22358268.00 27356299.00 L 23066928.00 27356299.00 L 23066928.00 27612203.00  zM 23066928.00 27917322.00 L 22358268.00 27917322.00 L 22358268.00 27700788.00 L 23066928.00 27700788.00 L 23066928.00 27917322.00  zM 24779526.45 29610242.40 m -645602.60 0 a 645602.60 645602.60 0 1 1 1291205.19 0a 645602.60 645602.60 0 1 1 -1291205.19 0"/>
</g>
</svg>
