<svg width="38.0000002mm" height="48.99999852mm" viewBox="0 0 14960630 19291338"  version="1.1" xmlns="http://www.w3.org/2000/svg" xmlns:xlink="http://www.w3.org/1999/xlink">
<desc>
Origin 11000000 11500000 Bound 10993531 11408383 14960630 19291338
</desc>
<g fill-rule="evenodd" fill="rgb(255, 0, 0)" stroke="black" stroke-width="1" transform="translate(0, 19291338) scale(1, -1) translate(-10993531, -11408383)">
<path id="N" d="M 23047243.00 27070867.00 L 22777542.00 27070867.00 L 22777542.00 26070310.00 L 22978520.00 25869332.00 L 22997542.00 25823410.00 L 22997542.00 24357608.00 L 23919938.00 23435212.00 L 23938960.00 23389290.00 L 23938960.00 20874016.00 L 23919938.00 20828094.00 L 22777542.00 19685698.00 L 22777542.00 19393701.00 L 23047243.00 19393701.00 L 23047243.00 19216537.00 L 22377953.00 19216537.00 L 22377953.00 19393701.00 L 22647654.00 19393701.00 L 22647654.00 19712598.00 L 22666676.00 19758520.00 L 23809072.00 20900916.00 L 23809072.00 23362390.00 L 22886676.00 24284786.00 L 22867654.00 24330708.00 L 22867654.00 25796510.00 L 22666676.00 25997488.00 L 22647654.00 26043410.00 L 22647654.00 27070867.00 L 22377953.00 27070867.00 L 22377953.00 27248031.00 L 23047243.00 27248031.00 L 23047243.00 27070867.00  z"/>
<path id="N" d="M 21886066.00 29170345.00 L 22758520.00 28297892.00 L 22777542.00 28251969.00 L 22777542.00 27897637.00 L 23047243.00 27897637.00 L 23047243.00 27720473.00 L 22377953.00 27720473.00 L 22377953.00 27897637.00 L 22647654.00 27897637.00 L 22647654.00 28225068.02 L 21813243.98 29059479.00 L 14462449.87 29059479.00 L 14352346.00 28949375.87 L 14352346.00 27897636.00 L 14622047.00 27897636.00 L 14622047.00 27720472.00 L 14325379.03 27720472.00 L 14287402.00 27704741.00 L 14135209.00 27704741.00 L 14097231.97 27720472.00 L 13952757.00 27720472.00 L 13952757.00 27897636.00 L 14222458.00 27897636.00 L 14222458.00 28976276.00 L 14241480.00 29022198.00 L 14389626.00 29170345.00 L 14435549.00 29189367.00 L 21840144.00 29189367.00 L 21886066.00 29170345.00  z"/>
<path id="N" d="M 20370078.00 20771654.00 L 20192914.00 20771654.00 L 20192914.00 21041355.00 L 20033199.00 21041355.00 L 19924944.00 20933100.00 L 19924944.00 18028229.00 L 19905922.00 17982306.00 L 19785416.00 17861800.86 L 19785416.00 17688120.00 L 20005905.00 17688120.00 L 20005905.00 16329852.00 L 19435039.00 16329852.00 L 19435039.00 17688120.00 L 19655528.00 17688120.00 L 19655528.00 17888701.00 L 19674550.00 17934623.00 L 19795056.00 18055129.86 L 19795056.00 20960000.00 L 19814078.00 21005922.00 L 19960377.00 21152221.00 L 20006299.00 21171243.00 L 20192914.00 21171243.00 L 20192914.00 21440944.00 L 20370078.00 21440944.00 L 20370078.00 20771654.00  z"/>
<path id="N" d="M 14622047.00 27070866.00 L 14352346.00 27070866.00 L 14352346.00 26394015.00 L 14333324.00 26348093.00 L 13072772.00 25087541.00 L 13072772.00 18302435.00 L 15266483.00 16108724.00 L 16338110.00 16108724.00 L 16384032.00 16089702.00 L 16731021.00 15742712.00 L 16750043.00 15696790.00 L 16750043.00 15531495.00 L 16807087.00 15531495.00 L 16807087.00 15137795.00 L 16642804.98 15137795.00 L 16630867.00 15132850.00 L 16579026.00 15132850.00 L 15800254.00 14354078.00 L 15754332.00 14335056.00 L 14526900.97 14335056.00 L 13824649.00 13632804.97 L 13824649.00 13550000.00 L 14075000.00 13550000.00 L 14075000.00 12050000.00 L 13325000.00 12050000.00 L 13325000.00 13550000.00 L 13694761.00 13550000.00 L 13694761.00 13659705.00 L 13713783.00 13705627.00 L 14454077.00 14445922.00 L 14500000.00 14464944.00 L 15727432.00 14464944.00 L 16506204.00 15243716.00 L 16552126.00 15262738.00 L 16570867.00 15262738.00 L 16570867.00 15531495.00 L 16620155.00 15531495.00 L 16620155.00 15669890.00 L 16311209.86 15978836.00 L 15239583.00 15978836.00 L 15193661.00 15997858.00 L 12961906.00 18229613.00 L 12942884.00 18275535.00 L 12942884.00 25114441.00 L 12961906.00 25160363.00 L 14222458.00 26420915.00 L 14222458.00 27070866.00 L 13952757.00 27070866.00 L 13952757.00 27248030.00 L 14622047.00 27248030.00 L 14622047.00 27070866.00  z"/>
<path id="N" d="M 18913384.00 27549196.00 L 20960630.00 27549196.00 L 21006552.00 27530174.00 L 22758520.00 25778206.00 L 22777542.00 25732284.00 L 22777542.00 23645669.00 L 23047243.00 23645669.00 L 23047243.00 23468505.00 L 22377953.00 23468505.00 L 22377953.00 23645669.00 L 22647654.00 23645669.00 L 22647654.00 25705384.00 L 20933730.00 27419308.00 L 18913384.00 27419308.00 L 18913384.00 27149607.00 L 18736220.00 27149607.00 L 18736220.00 27818897.00 L 18913384.00 27818897.00 L 18913384.00 27549196.00  z"/>
<path id="N" d="M 18887123.00 26665922.00 L 20129833.98 25423212.00 L 20192914.00 25423212.00 L 20192914.00 25692913.00 L 20370078.00 25692913.00 L 20370078.00 25396249.85 L 20385811.00 25358268.00 L 20370078.00 25320286.15 L 20370078.00 25023623.00 L 20192914.00 25023623.00 L 20192914.00 25293324.00 L 20102933.00 25293324.00 L 20057011.00 25312345.00 L 18814300.98 26555056.00 L 16156846.97 26555056.00 L 15649038.00 26047247.97 L 15630017.00 25998801.00 L 15513763.00 25882547.86 L 15513763.00 23889105.00 L 16439623.00 22963245.00 L 16458645.00 22917323.00 L 16458645.00 21519684.00 L 16728346.00 21519684.00 L 16728346.00 21342520.00 L 16431678.03 21342520.00 L 16393701.00 21326789.00 L 16355723.97 21342520.00 L 16059056.00 21342520.00 L 16059056.00 21519684.00 L 16328757.00 21519684.00 L 16328757.00 22890423.00 L 15402897.00 23816283.00 L 15383875.00 23862205.00 L 15383875.00 25909448.00 L 15402897.00 25955370.00 L 15519150.00 26071623.86 L 15538172.00 26120070.00 L 16084023.00 26665922.00 L 16129946.00 26684944.00 L 18841201.00 26684944.00 L 18887123.00 26665922.00  z"/>
<path id="N" d="M 22601500.00 29390345.00 L 25545923.00 26445923.00 L 25564944.00 26400001.00 L 25564944.00 18170295.00 L 25545922.00 18124373.00 L 25475627.00 18054078.00 L 25429705.00 18035056.00 L 22782893.00 18035056.00 L 22736971.00 18054078.00 L 22666676.00 18124373.00 L 22647654.00 18170295.00 L 22647654.00 18566931.00 L 22377953.00 18566931.00 L 22377953.00 18744095.00 L 23047243.00 18744095.00 L 23047243.00 18566931.00 L 22777542.00 18566931.00 L 22777542.00 18197195.00 L 22809793.00 18164944.00 L 25402805.00 18164944.00 L 25435056.00 18197195.00 L 25435056.00 26373100.01 L 22528677.99 29279479.00 L 14371323.99 29279479.00 L 12852772.00 27760927.99 L 12852772.00 18211309.01 L 15175357.99 15888724.00 L 15688032.00 15888724.00 L 15733954.00 15869702.00 L 16072161.82 15531495.00 L 16216536.00 15531495.00 L 16216536.00 15137795.00 L 16046928.36 15137795.00 L 16040316.00 15135056.00 L 14026900.00 15135056.00 L 12524649.00 13632805.00 L 12524649.00 13550000.00 L 12875000.00 13550000.00 L 12875000.00 12050000.00 L 12125000.00 12050000.00 L 12125000.00 13550000.00 L 12394761.00 13550000.00 L 12394761.00 13659705.00 L 12413783.00 13705627.00 L 13954078.00 15245922.00 L 14000000.00 15264944.00 L 15980316.00 15264944.00 L 15980316.00 15439651.18 L 15661131.95 15758836.00 L 15148457.00 15758836.00 L 15102535.00 15777857.00 L 12741906.00 18138487.00 L 12722884.00 18184409.00 L 12722884.00 27787828.00 L 12741906.00 27833750.00 L 14298501.00 29390346.00 L 14344423.00 29409367.00 L 22555578.00 29409367.00 L 22601500.00 29390345.00  z"/>
<path id="N" d="M 16431682.85 20870078.00 L 16728346.00 20870078.00 L 16728346.00 20692914.00 L 16458645.00 20692914.00 L 16458645.00 20109577.16 L 16538711.84 20029511.00 L 18490054.00 20029511.00 L 18535976.00 20010489.00 L 19245922.00 19300544.00 L 19264944.00 19254621.00 L 19264944.00 18301607.00 L 19245922.00 18255685.00 L 18899983.00 17909746.00 L 18899983.00 17573137.00 L 18880961.00 17527214.00 L 18525574.00 17171827.95 L 18525574.00 15531495.00 L 18578740.00 15531495.00 L 18578740.00 15137795.00 L 18434365.72 15137795.00 L 18264944.00 14968373.93 L 18264944.00 13550000.00 L 18575000.00 13550000.00 L 18575000.00 12050000.00 L 17825000.00 12050000.00 L 17825000.00 13550000.00 L 18135056.00 13550000.00 L 18135056.00 14995274.00 L 18154078.00 15041196.00 L 18342520.00 15229638.72 L 18342520.00 15531495.00 L 18395686.00 15531495.00 L 18395686.00 17198728.00 L 18414708.00 17244650.00 L 18770095.00 17600037.95 L 18770095.00 17936646.00 L 18789117.00 17982568.00 L 19135056.00 18328507.00 L 19135056.00 19227720.03 L 18463153.97 19899623.00 L 16511811.00 19899623.00 L 16465889.00 19918644.00 L 16347779.00 20036755.00 L 16328757.00 20082677.00 L 16328757.00 20692914.00 L 16059056.00 20692914.00 L 16059056.00 20870078.00 L 16355719.15 20870078.00 L 16393701.00 20885811.00 L 16431682.85 20870078.00  z"/>
<path id="N" d="M 17945922.00 26445922.00 L 19685923.00 24705922.00 L 19704944.00 24660000.00 L 19704944.00 18119355.00 L 19685922.00 18073433.00 L 19339983.00 17727494.00 L 19339983.00 16290478.05 L 19687656.00 15942806.00 L 19706677.00 15896884.00 L 19706677.00 15531495.00 L 19759843.00 15531495.00 L 19759843.00 15229638.10 L 20445922.00 14543560.00 L 20464944.00 14497637.00 L 20464944.00 13550000.00 L 20775000.00 13550000.00 L 20775000.00 12050000.00 L 20025000.00 12050000.00 L 20025000.00 13550000.00 L 20335056.00 13550000.00 L 20335056.00 14470736.03 L 19667997.90 15137795.00 L 19523623.00 15137795.00 L 19523623.00 15531495.00 L 19576789.00 15531495.00 L 19576789.00 15869983.05 L 19229117.00 16217656.00 L 19210095.00 16263578.00 L 19210095.00 17754394.00 L 19229117.00 17800316.00 L 19575056.00 18146255.00 L 19575056.00 24633099.01 L 17873099.99 26335056.00 L 16914151.00 26335056.00 L 16586969.00 26007874.00 L 17043307.00 26007874.00 L 17043307.00 25811024.00 L 15744095.00 25811024.00 L 15744095.00 26007874.00 L 16295277.00 26007874.00 L 16295277.00 26204718.00 L 16492127.00 26204718.00 L 16492127.00 26096720.00 L 16841329.00 26445922.00 L 16887251.00 26464944.00 L 17900000.00 26464944.00 L 17945922.00 26445922.00  z"/>
<path id="N" d="M 17043307.00 24708662.00 L 16492125.00 24708662.00 L 16492125.00 24593598.20 L 16497069.00 24581662.00 L 16497069.00 24497195.00 L 16529320.00 24464944.00 L 17900000.00 24464944.00 L 17945922.00 24445922.00 L 18545922.00 23845922.00 L 18564944.00 23800000.00 L 18564944.00 23645668.00 L 18834645.00 23645668.00 L 18834645.00 23468504.00 L 18165355.00 23468504.00 L 18165355.00 23645668.00 L 18435056.00 23645668.00 L 18435056.00 23773100.00 L 17873100.00 24335056.00 L 16502420.00 24335056.00 L 16456498.00 24354078.00 L 16386203.00 24424373.00 L 16367181.00 24470295.00 L 16367181.00 24511818.00 L 16295275.00 24511818.00 L 16295275.00 24708662.00 L 15744095.00 24708662.00 L 15744095.00 24905512.00 L 17043307.00 24905512.00 L 17043307.00 24708662.00  z"/>
<path id="N" d="M 18263778.00 27149607.00 L 18086614.00 27149607.00 L 18086614.00 27419308.00 L 16341860.00 27419308.00 L 14262733.00 25340181.00 L 14262733.00 23645668.00 L 14532434.00 23645668.00 L 14532434.00 23468504.00 L 13863144.00 23468504.00 L 13863144.00 23645668.00 L 14132845.00 23645668.00 L 14132845.00 25367081.00 L 14151867.00 25413003.00 L 16269038.00 27530174.00 L 16314960.00 27549196.00 L 18086614.00 27549196.00 L 18086614.00 27818897.00 L 18263778.00 27818897.00 L 18263778.00 27149607.00  z"/>
<path id="N" d="M 14700787.00 19045259.00 L 15701899.00 19045259.00 L 15747821.00 19026237.00 L 17085938.00 17688120.00 L 17564960.00 17688120.00 L 17564960.00 16329852.00 L 16994094.00 16329852.00 L 16994094.00 17596276.00 L 15674999.00 18915371.00 L 14700787.00 18915371.00 L 14700787.00 18645670.00 L 14523623.00 18645670.00 L 14523623.00 19314960.00 L 14700787.00 19314960.00 L 14700787.00 19045259.00  z"/>
<path id="N" d="M 18834645.00 18566930.00 L 18564944.00 18566930.00 L 18564944.00 18300000.00 L 18545922.00 18254078.00 L 17935023.00 17643179.00 L 17935023.00 15531495.00 L 17988189.00 15531495.00 L 17988189.00 15137795.00 L 17935023.00 15137795.00 L 17935023.00 14870079.00 L 17916001.00 14824157.00 L 17164944.00 14073100.00 L 17164944.00 13550000.00 L 17475000.00 13550000.00 L 17475000.00 12050000.00 L 16725000.00 12050000.00 L 16725000.00 13550000.00 L 17035056.00 13550000.00 L 17035056.00 14100000.00 L 17054078.00 14145922.00 L 17805135.00 14896979.00 L 17805135.00 15137795.00 L 17751969.00 15137795.00 L 17751969.00 15531495.00 L 17805135.00 15531495.00 L 17805135.00 17670079.00 L 17824157.00 17716001.00 L 18435056.00 18326900.00 L 18435056.00 18566930.00 L 18165355.00 18566930.00 L 18165355.00 18744094.00 L 18834645.00 18744094.00 L 18834645.00 18566930.00  z"/>
<path id="N" d="M 22685040.00 12937008.00 L 22192914.00 12937008.00 L 22192914.00 13645668.00 L 22685040.00 13645668.00 L 22685040.00 12937008.00  z"/>
<path id="N" d="M 15318898.00 12937008.00 L 14826772.00 12937008.00 L 14826772.00 13645668.00 L 15318898.00 13645668.00 L 15318898.00 12937008.00  z"/>
<path id="N" d="M 18834645.00 22818898.00 L 18564944.00 22818898.00 L 18564944.00 20292647.00 L 19465922.00 19391670.00 L 19484944.00 19345747.00 L 19484944.00 18210481.00 L 19465922.00 18164558.00 L 19119983.00 17818619.92 L 19119983.00 17482011.00 L 19116126.00 17472699.13 L 19116126.00 15531495.00 L 19169292.00 15531495.00 L 19169292.00 15229638.00 L 19345922.00 15053008.00 L 19364944.00 15007086.00 L 19364944.00 13550000.00 L 19675000.00 13550000.00 L 19675000.00 12050000.00 L 18925000.00 12050000.00 L 18925000.00 13550000.00 L 19235056.00 13550000.00 L 19235056.00 14980186.00 L 19077447.00 15137795.00 L 18933072.00 15137795.00 L 18933072.00 15531495.00 L 18986238.00 15531495.00 L 18986238.00 17478154.00 L 18990095.00 17487465.38 L 18990095.00 17845520.00 L 19009117.00 17891442.00 L 19355056.00 18237381.86 L 19355056.00 19318846.14 L 18454078.00 20219825.00 L 18435056.00 20265747.00 L 18435056.00 22818898.00 L 18165355.00 22818898.00 L 18165355.00 22996062.00 L 18834645.00 22996062.00 L 18834645.00 22818898.00  z"/>
<path id="N" d="M 21019684.00 21135554.00 L 21129390.00 21135554.00 L 21175312.00 21116532.00 L 21345922.00 20945922.00 L 21364944.00 20900000.00 L 21364944.00 17300000.00 L 21345923.00 17254078.00 L 20364944.00 16273099.98 L 20364944.00 15541791.00 L 20355338.00 15518600.66 L 20355338.00 15392755.00 L 20350394.00 15380819.43 L 20350394.00 15229638.00 L 21545922.00 14034110.00 L 21564944.00 13988188.00 L 21564944.00 13550000.00 L 21875000.00 13550000.00 L 21875000.00 12050000.00 L 21125000.00 12050000.00 L 21125000.00 13550000.00 L 21435056.00 13550000.00 L 21435056.00 13961288.00 L 20258549.00 15137795.00 L 20114174.00 15137795.00 L 20114174.00 15531495.00 L 20225450.00 15532185.00 L 20235056.00 15555375.34 L 20235056.00 16300000.00 L 20254078.00 16345922.00 L 21235056.00 17326900.98 L 21235056.00 20873100.00 L 21102490.00 21005666.00 L 21019684.00 21005666.00 L 21019684.00 20771654.00 L 20842520.00 20771654.00 L 20842520.00 21440944.00 L 21019684.00 21440944.00 L 21019684.00 21135554.00  z"/>
<path id="N" d="M 14532434.00 22818898.00 L 14262733.00 22818898.00 L 14262733.00 21857319.01 L 16355108.99 19764944.00 L 18400000.00 19764944.00 L 18445922.00 19745922.00 L 18545922.00 19645923.00 L 18564944.00 19600000.00 L 18564944.00 19393700.00 L 18834645.00 19393700.00 L 18834645.00 19216536.00 L 18165355.00 19216536.00 L 18165355.00 19393700.00 L 18435056.00 19393700.00 L 18435056.00 19573099.19 L 18373099.81 19635056.00 L 16328208.00 19635056.00 L 16282285.00 19654078.00 L 14151867.00 21784497.00 L 14132845.00 21830419.00 L 14132845.00 22818898.00 L 13863144.00 22818898.00 L 13863144.00 22996062.00 L 14532434.00 22996062.00 L 14532434.00 22818898.00  z"/>
<path id="N" d="M 25336865.00 26332428.00 L 25336865.00 18263135.00 L 22875733.00 18263135.00 L 22875733.00 18466931.00 L 23147243.00 18466931.00 L 23147243.00 18844095.00 L 22277953.00 18844095.00 L 22277953.00 18466931.00 L 22549463.00 18466931.00 L 22549463.00 18170295.00 L 22561881.00 18107866.00 L 22597244.00 18054941.00 L 22667539.00 17984646.00 L 22720464.00 17949283.00 L 22782893.00 17936865.00 L 23500000.00 17936865.00 L 23500000.00 16000000.00 L 25500000.00 16000000.00 L 25500000.00 12000000.00 L 25375000.00 12000000.00 L 25375000.00 13650000.00 L 25063135.00 13650000.00 L 25063135.00 13900000.00 L 25050717.00 13962429.00 L 25015354.00 14015354.00 L 23717560.00 15313148.00 L 23664635.00 15348511.00 L 23602206.00 15360929.00 L 21631496.00 15360929.00 L 21631496.00 15631495.00 L 21576521.00 15631495.00 L 21576521.00 16723561.00 L 21855354.00 17002394.00 L 21890717.00 17055319.00 L 21903135.00 17117748.00 L 21903135.00 21201807.00 L 22827952.00 22126624.00 L 22863315.00 22179549.00 L 22875733.00 22241978.00 L 22875733.00 22718899.00 L 23147243.00 22718899.00 L 23147243.00 23096063.00 L 22277953.00 23096063.00 L 22277953.00 22718899.00 L 22549463.00 22718899.00 L 22549463.00 22309551.00 L 21624646.48 21384734.48 L 21590649.97 21381386.03 L 21054868.00 21917168.00 L 21054868.00 24923623.00 L 21119684.00 24923623.00 L 21119684.00 25792913.00 L 20742520.00 25792913.00 L 20742520.00 25422947.92 L 20728598.00 25358268.00 L 20728598.00 21849595.00 L 20741016.00 21787166.00 L 20776379.00 21734241.00 L 20923481.60 21587138.40 L 20904347.25 21540944.00 L 20742520.00 21540944.00 L 20742520.00 20671654.00 L 21119683.02 20671653.81 L 21136865.00 20628770.09 L 21136865.00 17367573.00 L 20184646.00 16415354.00 L 20155905.33 16372340.12 L 20105905.00 16381136.47 L 20105905.00 17788120.00 L 19921310.28 17788120.00 L 19900599.43 17838120.43 L 19975354.00 17912875.00 L 20010717.00 17965800.00 L 20023135.00 18028229.00 L 20023135.00 20866655.44 L 20042913.53 20881386.01 L 20092914.00 20856280.94 L 20092914.00 20671654.00 L 20470078.00 20671654.00 L 20470078.00 21540944.00 L 20092914.00 21540944.00 L 20092914.00 21269434.00 L 20006299.00 21269434.00 L 19943870.00 21257016.00 L 19890945.00 21221653.00 L 19849329.40 21180037.40 L 19803135.00 21199171.75 L 19803135.00 24660000.00 L 19790717.00 24722429.00 L 19755354.00 24775354.00 L 18120037.40 26410670.60 L 18139171.75 26456865.00 L 18773628.00 26456865.00 L 19987579.00 25242914.00 L 20040504.00 25207551.00 L 20092914.00 25197125.08 L 20092914.00 24923623.00 L 20470078.00 24923623.00 L 20470078.00 25293585.09 L 20484002.00 25358268.00 L 20470078.00 25422950.91 L 20470078.00 25792913.00 L 20092914.00 25792913.00 L 20092914.00 25664323.75 L 20046719.60 25645189.40 L 18956555.00 26735354.00 L 18903630.00 26770717.00 L 18841201.00 26783135.00 L 16129946.00 26783135.00 L 16067517.00 26770717.00 L 16014592.00 26735354.00 L 15468740.00 26189502.00 L 15433377.00 26136577.00 L 15430431.35 26121768.35 L 15333465.00 26024802.00 L 15298102.00 25971877.00 L 15285684.00 25909448.00 L 15285684.00 23862205.00 L 15298102.00 23799776.00 L 15333465.00 23746851.00 L 16230566.00 22849750.00 L 16230566.00 21619684.00 L 15959056.00 21619684.00 L 15959056.00 21242520.00 L 16329021.08 21242520.00 L 16393701.00 21228598.00 L 16458380.92 21242520.00 L 16828346.00 21242520.00 L 16828346.00 21619684.00 L 16556836.00 21619684.00 L 16556836.00 22917323.00 L 16544418.00 22979752.00 L 16509055.00 23032677.00 L 15611954.00 23929778.00 L 15611954.00 24571974.70 L 15644095.45 24608661.09 L 16193316.00 24608662.00 L 16193316.00 24511818.00 A 101958.15 101958.15 0 0 1 16256257.00 24417620.00 L 16280423.97 24412812.99 L 16281408.00 24407866.00 L 16316771.00 24354941.00 L 16387066.00 24284646.00 L 16439991.00 24249283.00 L 16502420.00 24236865.00 L 17832427.00 24236865.00 L 18277429.60 23791862.40 L 18258295.25 23745668.00 L 18065355.00 23745668.00 L 18065355.00 23368504.00 L 18934645.00 23368504.00 L 18934645.00 23745668.00 L 18663135.00 23745668.00 L 18663135.00 23800000.00 L 18650717.00 23862429.00 L 18615354.00 23915354.00 L 18015354.00 24515354.00 L 17962429.00 24550717.00 L 17900000.00 24563135.00 L 17154106.41 24563135.00 L 17143307.00 24608662.78 L 17143307.00 25005512.00 L 15644095.45 25005512.91 L 15611954.00 25042199.30 L 15611954.00 25674336.70 L 15644095.94 25711024.00 L 17143307.00 25711024.00 L 17143307.00 26107874.00 L 16891161.75 26107874.00 L 16872027.40 26154068.40 L 16954824.00 26236865.00 L 17832427.00 26236865.00 L 19476865.00 24592427.00 L 19476865.00 19584918.75 L 19430670.60 19565784.40 L 18663135.00 20333320.00 L 18663135.00 22718898.00 L 18934645.00 22718898.00 L 18934645.00 23096062.00 L 18065355.00 23096062.00 L 18065355.00 22718898.00 L 18336865.00 22718898.00 L 18336865.00 20265747.00 L 18349283.00 20203318.00 L 18366398.57 20177702.48 L 18339672.60 20127702.00 L 16579384.00 20127702.00 L 16556836.00 20150250.00 L 16556836.00 20592914.00 L 16828346.00 20592914.00 L 16828346.00 20970078.00 L 16458383.91 20970078.00 L 16393701.00 20984002.00 L 16329018.09 20970078.00 L 15959056.00 20970078.00 L 15959056.00 20592914.00 L 16230566.00 20592914.00 L 16230566.00 20099061.26 L 16187627.87 20077317.70 L 16182267.45 20076648.55 L 14360924.00 21897992.00 L 14360924.00 22718898.00 L 14632434.00 22718898.00 L 14632434.00 23096062.00 L 13763144.00 23096062.00 L 13763144.00 22718898.00 L 14034654.00 22718898.00 L 14034654.00 21830419.00 L 14047072.00 21767990.00 L 14082435.00 21715065.00 L 16212854.00 19584646.00 L 16265779.00 19549283.00 L 16328208.00 19536865.00 L 18048853.24 19536865.00 L 18065355.00 19493699.18 L 18065355.00 19116536.00 L 18934645.00 19116536.00 L 18934645.00 19223939.25 L 18980839.40 19243073.60 L 19036865.00 19187048.00 L 19036865.00 18369180.00 L 18719685.00 18052000.00 L 18684322.00 17999075.00 L 18671904.00 17936646.00 L 18671904.00 17640710.00 L 18345276.00 17314082.00 L 18309913.00 17261157.00 L 18297495.00 17198728.00 L 18297495.00 15631495.00 L 18242520.00 15631495.00 L 18242520.00 15268502.00 L 18134383.40 15160365.40 L 18088189.00 15179499.75 L 18088189.00 15631495.00 L 18033214.00 15631495.00 L 18033214.00 17602506.00 L 18615354.00 18184646.00 L 18650717.00 18237571.00 L 18663135.00 18300000.00 L 18663135.00 18466930.00 L 18934645.00 18466930.00 L 18934645.00 18844094.00 L 18065355.00 18844094.00 L 18065355.00 18466930.00 L 18336865.00 18466930.00 L 18336865.00 18367573.00 L 17754725.00 17785433.00 L 17719362.00 17732508.00 L 17714960.13 17710378.49 L 17664960.00 17715303.11 L 17664960.00 17788120.00 L 17124802.00 17788120.00 L 15817253.00 19095669.00 L 15764328.00 19131032.00 L 15701899.00 19143450.00 L 14800787.00 19143450.00 L 14800787.00 19414960.00 L 14423623.00 19414960.00 L 14423623.00 18545670.00 L 14800787.00 18545670.00 L 14800787.00 18817180.00 L 15634326.00 18817180.00 L 16894094.00 17557412.00 L 16894094.00 16229852.00 L 17664959.79 16229851.02 L 17706944.00 16210499.07 L 17706944.00 15631495.00 L 17651969.00 15631495.00 L 17651969.00 15037795.00 L 17706944.00 15037795.00 L 17706944.00 14937652.00 L 16984646.00 14215354.00 L 16949283.00 14162429.00 L 16936865.00 14100000.00 L 16936865.00 13650000.00 L 16625000.00 13650000.00 L 16625000.00 12000000.00 L 16475000.00 12000000.00 L 16475000.00 13650000.00 L 16163135.00 13650000.00 L 16163135.00 13908803.00 L 17292127.00 15037795.00 L 17497638.00 15037795.00 L 17497638.00 15631495.00 L 17292127.00 15631495.00 L 16544590.00 16379134.00 L 16491665.00 16414497.00 L 16429236.00 16426915.00 L 15398282.00 16426915.00 L 13663135.00 18162062.00 L 13663135.00 18632427.00 L 13727822.60 18697114.60 L 13774017.00 18677980.25 L 13774017.00 18545670.00 L 14151181.00 18545670.00 L 14151181.00 19414960.00 L 13774017.00 19414960.00 L 13774017.00 19127446.00 L 13764311.00 19127446.00 L 13701882.00 19115028.00 L 13648957.00 19079665.00 L 13384646.00 18815354.00 L 13349283.00 18762429.00 L 13336865.00 18700000.00 L 13336865.00 18242534.75 L 13290670.60 18223400.40 L 13170963.00 18343108.00 L 13170963.00 25046868.00 L 14402756.00 26278661.00 L 14438119.00 26331586.00 L 14450537.00 26394015.00 L 14450537.00 26970866.00 L 14722047.00 26970866.00 L 14722047.00 27348030.00 L 13852757.00 27348030.00 L 13852757.00 26970866.00 L 14124267.00 26970866.00 L 14124267.00 26461588.00 L 12997157.40 25334478.40 L 12950963.00 25353612.75 L 12950963.00 27720255.00 L 14078072.60 28847364.60 L 14124267.00 28828230.25 L 14124267.00 27997636.00 L 13852757.00 27997636.00 L 13852757.00 27620472.00 L 14070529.08 27620472.00 L 14135209.00 27606550.00 L 14287402.00 27606550.00 L 14352081.92 27620472.00 L 14722047.00 27620472.00 L 14722047.00 27997636.00 L 14450537.00 27997636.00 L 14450537.00 28908703.00 L 14503122.00 28961288.00 L 21772571.00 28961288.00 L 22549463.00 28184396.00 L 22549463.00 27997637.00 L 22277953.00 27997637.00 L 22277953.00 27620473.00 L 23147243.00 27620473.00 L 23147243.00 27997637.00 L 22875733.00 27997637.00 L 22875733.00 28251969.00 L 22863315.00 28314398.00 L 22827952.00 28367323.00 L 22060181.40 29135093.60 L 22079315.75 29181288.00 L 22488005.00 29181288.00 L 25336865.00 26332428.00  zM 18363778.00 27918897.00 L 17986614.00 27918897.00 L 17986614.00 27647387.00 L 16314960.00 27647387.00 L 16252531.00 27634969.00 L 16199606.00 27599606.00 L 14082435.00 25482435.00 L 14047072.00 25429510.00 L 14034654.00 25367081.00 L 14034654.00 23745668.00 L 13763144.00 23745668.00 L 13763144.00 23368504.00 L 14632434.00 23368504.00 L 14632434.00 23745668.00 L 14360924.00 23745668.00 L 14360924.00 25299508.00 L 16382533.00 27321117.00 L 17986614.00 27321117.00 L 17986614.00 27049607.00 L 18363778.00 27049607.00 L 18363778.00 27918897.00  zM 19013384.00 27918897.00 L 18636220.00 27918897.00 L 18636220.00 27049607.00 L 19013384.00 27049607.00 L 19013384.00 27321117.00 L 20893057.00 27321117.00 L 22549463.00 25664711.00 L 22549463.00 23745669.00 L 22277953.00 23745669.00 L 22277953.00 23368505.00 L 23147243.00 23368505.00 L 23147243.00 23745669.00 L 22875733.00 23745669.00 L 22875733.00 24091536.25 L 22921927.40 24110670.60 L 23710881.00 23321717.00 L 23710881.00 20941589.00 L 22597244.00 19827952.00 L 22561881.00 19775027.00 L 22549463.00 19712598.00 L 22549463.00 19493701.00 L 22277953.00 19493701.00 L 22277953.00 19116537.00 L 23147243.00 19116537.00 L 23147243.00 19493701.00 L 22875733.00 19493701.00 L 22875733.00 19645025.00 L 23989370.00 20758662.00 L 24024733.00 20811587.00 L 24037151.00 20874016.00 L 24037151.00 23389290.00 L 24024733.00 23451719.00 L 23989370.00 23504644.00 L 23095733.00 24398281.00 L 23095733.00 25823410.00 L 23083315.00 25885839.00 L 23047952.00 25938764.00 L 22875733.00 26110983.00 L 22875733.00 26970867.00 L 23147243.00 26970867.00 L 23147243.00 27348031.00 L 22277953.00 27348031.00 L 22277953.00 26970867.00 L 22549463.00 26970867.00 L 22549463.00 26191455.75 L 22503268.60 26172321.40 L 21075984.00 27599606.00 L 21023059.00 27634969.00 L 20960630.00 27647387.00 L 19013384.00 27647387.00 L 19013384.00 27918897.00  z"/>
<path id="N" d="M 16784516.60 14991600.60 L 15884646.00 14091730.00 L 15849283.00 14038805.00 L 15836865.00 13976376.00 L 15836865.00 13650000.00 L 15525000.00 13650000.00 L 15525000.00 12000000.00 L 14175000.00 12000000.00 L 14175000.00 13650000.00 L 14046036.75 13650000.00 L 14026902.40 13696194.40 L 14567573.00 14236865.00 L 15754332.00 14236865.00 L 15816761.00 14249283.00 L 15869686.00 14284646.00 L 16619699.00 15034659.00 L 16630867.00 15034659.00 L 16646632.61 15037795.00 L 16765382.25 15037795.00 L 16784516.60 14991600.60  zM 15418898.00 13745668.00 L 14726772.00 13745668.00 L 14726772.00 12837008.00 L 15418898.00 12837008.00 L 15418898.00 13745668.00  z"/>
<path id="N" d="M 23500000.00 28696037.75 L 23453805.60 28676903.40 L 22670932.00 29459777.00 L 22618007.00 29495140.00 L 22555578.00 29507558.00 L 14344423.00 29507558.00 L 14281994.00 29495140.00 L 14229069.00 29459777.00 L 12672474.00 27903182.00 L 12637111.00 27850257.00 L 12624693.00 27787828.00 L 12624693.00 18184409.00 L 12637111.00 18121980.00 L 12672474.00 18069055.00 L 12695334.60 18046194.40 L 12676200.25 18000000.00 L 11500000.00 18000000.00 L 11500000.00 28500000.00 L 13000000.00 28500000.00 L 13000000.00 30000000.00 L 23500000.00 30000000.00 L 23500000.00 28696037.75  z"/>
<path id="N" d="M 21619487.00 14228544.00 L 21672412.00 14193181.00 L 21734841.00 14180763.00 L 22988530.00 14180763.00 L 23473098.60 13696194.40 L 23453964.25 13650000.00 L 23225000.00 13650000.00 L 23225000.00 12000000.00 L 21975000.00 12000000.00 L 21975000.00 13650000.00 L 21663135.00 13650000.00 L 21663135.00 13988188.00 L 21650717.00 14050617.00 L 21615354.00 14103542.00 L 20727295.40 14991600.60 L 20746429.75 15037795.00 L 20810236.00 15037795.00 L 21619487.00 14228544.00  zM 22785040.00 13745668.00 L 22092914.00 13745668.00 L 22092914.00 12837008.00 L 22785040.00 12837008.00 L 22785040.00 13745668.00  z"/>
<path id="N" d="M 15033103.00 15708426.00 L 15086028.00 15673063.00 L 15148462.03 15660645.00 L 15620459.00 15660645.00 L 15867968.58 15413135.42 L 15850507.09 15363135.00 L 14000000.00 15363135.00 L 13937571.00 15350717.00 L 13884646.00 15315354.00 L 12344351.00 13775059.00 L 12308988.00 13722134.00 L 12296570.00 13659705.00 L 12296570.00 13650000.00 L 12025000.00 13650000.00 L 12025000.00 12000000.00 L 11500000.00 12000000.00 L 11500000.00 16000000.00 L 13500000.00 16000000.00 L 13500000.00 17176200.25 L 13546194.40 17195334.60 L 15033103.00 15708426.00  z"/>
<path id="N" d="M 21471496.00 15034659.00 L 23534633.00 15034659.00 L 24736865.00 13832427.00 L 24736865.00 13650000.00 L 24425000.00 13650000.00 L 24425000.00 12000000.00 L 24175000.00 12000000.00 L 24175000.00 13650000.00 L 23863135.00 13650000.00 L 23863135.00 13700001.00 L 23850717.00 13762430.00 L 23815354.00 13815355.00 L 23171457.00 14459252.00 L 23118532.00 14494615.00 L 23056103.00 14507033.00 L 21802414.00 14507033.00 L 21317846.40 14991600.60 L 21336980.75 15037795.00 L 21455730.39 15037795.00 L 21471496.00 15034659.00  z"/>
<path id="N" d="M 18888047.00 17330108.25 L 18888047.00 15631495.00 L 18833072.00 15631495.00 L 18833072.00 15037795.00 L 19038583.00 15037795.00 L 19136865.00 14939513.00 L 19136865.00 13650000.00 L 18825000.00 13650000.00 L 18825000.00 12000000.00 L 18675000.00 12000000.00 L 18675000.00 13650000.00 L 18363135.00 13650000.00 L 18363135.00 14927701.00 L 18473229.00 15037795.00 L 18678740.00 15037795.00 L 18678740.00 15631495.00 L 18623765.00 15631495.00 L 18623765.00 17131155.00 L 18841852.60 17349242.60 L 18888047.00 17330108.25  z"/>
<path id="N" d="M 16115224.60 14991600.60 L 15686759.00 14563135.00 L 14500000.00 14563135.00 L 14437571.00 14550717.00 L 14384646.00 14515354.00 L 13644351.00 13775059.00 L 13608988.00 13722134.00 L 13596570.00 13659705.00 L 13596570.00 13650000.00 L 13225000.00 13650000.00 L 13225000.00 12000000.00 L 12975000.00 12000000.00 L 12975000.00 13650000.00 L 12746036.75 13650000.00 L 12726902.40 13696194.40 L 14067573.00 15036865.00 L 16096090.25 15037795.00 L 16115224.60 14991600.60  z"/>
<path id="N" d="M 20105904.06 16229851.66 L 20136865.00 16192675.52 L 20136865.00 15631495.00 L 20014174.00 15631495.00 L 20014174.00 15179499.75 L 19967979.60 15160365.40 L 19859843.00 15268502.00 L 19859843.00 15631495.00 L 19804868.00 15631495.00 L 19804868.00 15896884.00 L 19792450.00 15959313.00 L 19757087.00 16012238.00 L 19585667.40 16183657.60 L 19604801.75 16229852.00 L 20105904.06 16229851.66  z"/>
<path id="N" d="M 21336865.00 13920615.00 L 21336865.00 13650000.00 L 21025000.00 13650000.00 L 21025000.00 12000000.00 L 20875000.00 12000000.00 L 20875000.00 13650000.00 L 20563135.00 13650000.00 L 20563135.00 14497637.00 L 20550717.00 14560066.00 L 20515354.00 14612991.00 L 20136744.40 14991600.60 L 20155878.75 15037795.00 L 20219685.00 15037795.00 L 21336865.00 13920615.00  z"/>
<path id="N" d="M 21250251.00 16643088.25 L 21250251.00 15631495.00 L 21195276.00 15631495.00 L 21195276.00 15179499.75 L 21149081.60 15160365.40 L 21040945.00 15268502.00 L 21040945.00 15631495.00 L 20985970.00 15631495.00 L 20985970.00 16444136.00 L 21204056.60 16662222.60 L 21250251.00 16643088.25  z"/>
<path id="N" d="M 20236865.00 14430064.00 L 20236865.00 13650000.00 L 19925000.00 13650000.00 L 19925000.00 12000000.00 L 19775000.00 12000000.00 L 19775000.00 13650000.00 L 19463135.00 13650000.00 L 19463135.00 15007085.33 L 19488337.74 15037795.00 L 19629134.00 15037795.00 L 20236865.00 14430064.00  z"/>
<path id="N" d="M 18036865.00 14741700.33 L 18036865.00 13650000.00 L 17725000.00 13650000.00 L 17725000.00 12000000.00 L 17575000.00 12000000.00 L 17575000.00 13650000.00 L 17263135.00 13650000.00 L 17263135.00 14032427.00 L 17986864.65 14756867.64 L 18036865.00 14741700.33  z"/>
<path id="N" d="M 25500000.00 26696037.75 L 25453805.60 26676903.40 L 23676903.40 28453805.60 L 23696037.75 28500000.00 L 25500000.00 28500000.00 L 25500000.00 26696037.75  z"/>
<path id="N" d="M 21019684.00 25023623.00 L 20956677.00 25023623.00 L 20956677.00 21876495.03 L 21565923.00 21267250.00 L 21584944.00 21221328.00 L 21584944.00 17208874.00 L 21565922.00 17162952.00 L 20887779.00 16484809.00 L 20887779.00 15531495.00 L 20940945.00 15531495.00 L 20940945.00 15229638.08 L 21761741.98 14408842.00 L 23056103.00 14408842.00 L 23102025.00 14389820.00 L 23745922.00 13745923.00 L 23764944.00 13700001.00 L 23764944.00 13550000.00 L 24075000.00 13550000.00 L 24075000.00 12050000.00 L 23325000.00 12050000.00 L 23325000.00 13550000.00 L 23635056.00 13550000.00 L 23635056.00 13673101.00 L 23029203.00 14278954.00 L 21734841.00 14278954.00 L 21688918.00 14297976.00 L 20849099.92 15137795.00 L 20704725.00 15137795.00 L 20704725.00 15531495.00 L 20757891.00 15531495.00 L 20757891.00 16511709.00 L 20776913.00 16557631.00 L 21455056.00 17235774.00 L 21455056.00 21194427.03 L 20845811.00 21803673.00 L 20826789.00 21849595.00 L 20826789.00 25358268.00 L 20842520.00 25396245.03 L 20842520.00 25692913.00 L 21019684.00 25692913.00 L 21019684.00 25023623.00  z"/>
<path id="N" d="M 14051181.00 18645670.00 L 13874017.00 18645670.00 L 13874017.00 18899367.00 L 13791211.00 18899367.00 L 13564944.00 18673100.00 L 13564944.00 18121389.01 L 15357609.99 16328724.00 L 16429236.00 16328724.00 L 16475158.00 16309702.00 L 17253263.72 15531495.00 L 17397638.00 15531495.00 L 17397638.00 15137795.00 L 17253263.00 15137795.00 L 16064944.00 13949476.00 L 16064944.00 13550000.00 L 16375000.00 13550000.00 L 16375000.00 12050000.00 L 15625000.00 12050000.00 L 15625000.00 13550000.00 L 15935056.00 13550000.00 L 15935056.00 13976376.00 L 15954078.00 14022298.00 L 17161418.00 15229638.00 L 17161418.00 15439651.28 L 16402336.00 16198836.00 L 15330709.00 16198836.00 L 15284786.00 16217858.00 L 13454078.00 18048567.00 L 13435056.00 18094489.00 L 13435056.00 18700000.00 L 13454078.00 18745922.00 L 13718389.00 19010233.00 L 13764311.00 19029255.00 L 13874017.00 19029255.00 L 13874017.00 19314960.00 L 14051181.00 19314960.00 L 14051181.00 18645670.00  z"/>
<path id="N" d="M 23047243.00 22818899.00 L 22777542.00 22818899.00 L 22777542.00 22241978.00 L 22758520.00 22196055.00 L 21804944.00 21242479.98 L 21804944.00 17117748.00 L 21785922.00 17071826.00 L 21478330.00 16764234.00 L 21478330.00 15531495.00 L 21531496.00 15531495.00 L 21531496.00 15262738.00 L 23602206.00 15262738.00 L 23648128.00 15243716.00 L 24945922.00 13945922.00 L 24964944.00 13900000.00 L 24964944.00 13550000.00 L 25275000.00 13550000.00 L 25275000.00 12050000.00 L 24525000.00 12050000.00 L 24525000.00 13550000.00 L 24835056.00 13550000.00 L 24835056.00 13873100.00 L 23575306.00 15132850.00 L 21471496.00 15132850.00 L 21459558.02 15137795.00 L 21295276.00 15137795.00 L 21295276.00 15531495.00 L 21348442.00 15531495.00 L 21348442.00 16791134.00 L 21367464.00 16837056.00 L 21675056.00 17144648.00 L 21675056.00 21269380.00 L 21694078.00 21315302.00 L 22647654.00 22268878.98 L 22647654.00 22818899.00 L 22377953.00 22818899.00 L 22377953.00 22996063.00 L 23047243.00 22996063.00 L 23047243.00 22818899.00  z"/>
</g>
</svg>
